<?xml version="1.0" standalone="no"?>
<!DOCTYPE svg PUBLIC "-//W3C//DTD SVG 1.1//EN" "http://www.w3.org/Graphics/SVG/1.1/DTD/svg11.dtd" >
<svg xmlns="http://www.w3.org/2000/svg" xmlns:xlink="http://www.w3.org/1999/xlink" version="1.1">
<metadata></metadata>
<defs>
<font id="pf_highway_sans_prolight" horiz-adv-x="1247" >
<font-face units-per-em="2048" ascent="1536" descent="-512" />
<missing-glyph horiz-adv-x="466" />
<glyph unicode="&#xfb01;" horiz-adv-x="890" d="M47 889v110h133v156q0 66 22.5 113t61.5 76.5t91.5 44t113.5 14.5q66 0 128 -15.5t97 -31.5l-26 -111q-43 10 -91.5 18.5t-93.5 8.5q-72 0 -120 -30t-48 -112v-131h312l145 35v-1034h-137v889h-320v-889h-135v889h-133z" />
<glyph unicode="&#xfb02;" horiz-adv-x="933" d="M61 889v110h129v148q0 68 24 115t63.5 76.5t93 43t112.5 13.5q53 0 108.5 -10.5t96.5 -24.5q4 2 21.5 9t37 16.5t37 16.5t21.5 11v-1413h-135v1243q-41 8 -85 14.5t-85 6.5q-74 0 -122 -31t-48 -111v-123h200v-110h-200v-889h-137v889h-132z" />
<glyph unicode="&#xfb03;" horiz-adv-x="1353" d="M55 889v110h133v146q0 133 84 195.5t215 62.5q59 0 124 -13.5t106 -31.5q39 35 93 50t120 15t129 -14t98 -31l-27 -110q-45 10 -93 17t-93 7q-70 0 -118 -29.5t-48 -111.5v-152h316l141 35v-1034h-135v889h-322v-889h-137v889h-317v-889h-136v889h-133zM326 999h315v175 q0 45 12 79q-37 8 -73.5 13.5t-75.5 5.5q-84 0 -131 -35t-47 -117v-121z" />
<glyph unicode="&#xfb04;" horiz-adv-x="1390" d="M63 889v110h132v156q0 66 22.5 113t62 76.5t93 44t114.5 14.5q59 0 124 -13.5t104 -27.5q41 41 100 59.5t131 18.5q53 0 107.5 -11.5t95.5 -23.5l119 51v-1456h-138v1286q-41 10 -85 16.5t-82 6.5q-76 0 -123 -30t-47 -112v-168h200v-110h-200v-889h-140v889h-319v-889 h-139v889h-132zM334 999h319v193q0 16 2 31.5t7 29.5q-39 8 -81 13.5t-77 5.5q-74 0 -122 -30t-48 -112v-131z" />
<glyph horiz-adv-x="0" />
<glyph horiz-adv-x="682" />
<glyph unicode=" "  horiz-adv-x="466" />
<glyph unicode="&#x09;" horiz-adv-x="466" />
<glyph unicode="&#xa0;" horiz-adv-x="466" />
<glyph unicode="!" horiz-adv-x="514" d="M166 86q0 53 32.5 78.5t69.5 25.5q45 0 73 -30.5t28 -71.5q0 -43 -29 -73.5t-72 -30.5t-72.5 29.5t-29.5 72.5zM193 780v553h151v-551l-31 -434h-90z" />
<glyph unicode="&#x22;" horiz-adv-x="720" d="M147 1333h154l-35 -434h-84zM422 1333h156l-35 -434h-86z" />
<glyph unicode="#" d="M47 379l23 127h231l59 340h-231l21 127h233l61 360h138l-62 -360h322l61 360h137l-61 -360h233l-22 -127h-234l-57 -340h231l-20 -127h-233l-68 -379h-137l65 379h-319l-66 -379h-141l68 379h-232zM436 502h328l59 348h-327z" />
<glyph unicode="$" d="M170 178l98 107q72 -66 160 -103t184 -37q137 0 220 52.5t83 167.5q0 92 -64.5 141t-186.5 90q-102 35 -187.5 65.5t-146 71.5t-93 100.5t-32.5 151.5q0 68 24.5 124t68.5 100t104.5 73t132.5 39v195h141v-191q201 -16 344 -135l-92 -107q-72 55 -149 83t-171 28 q-123 0 -188.5 -57.5t-65.5 -143.5q0 -47 21.5 -80.5t56.5 -58.5t78 -43t88 -33q72 -25 154 -51.5t152.5 -70.5t116.5 -112.5t46 -174.5q0 -150 -97.5 -245t-293.5 -112v-190h-141v190q-109 10 -201 54.5t-164 111.5z" />
<glyph unicode="%" horiz-adv-x="1742" d="M61 930q0 90 25 165.5t72 131t115.5 87.5t156.5 32q84 0 152.5 -30t118 -85t76 -132t26.5 -169t-26.5 -168t-76 -131.5t-118 -85t-152.5 -29.5q-88 0 -156.5 31t-115.5 86t-72 131t-25 166zM193 930q0 -61 14 -115.5t44 -94.5t75 -63.5t104 -23.5t104.5 23.5t75 63.5 t44 94.5t14.5 115.5q0 133 -59.5 216t-178.5 83t-178 -82t-59 -217zM387 -43l840 1425h131l-842 -1425h-129zM940 403q0 88 24.5 164t71.5 131.5t116 87t157 31.5q84 0 152.5 -30.5t117.5 -85t75.5 -130.5t26.5 -168q0 -94 -26.5 -170.5t-75.5 -131t-117.5 -84t-152.5 -29.5 q-88 0 -157 30.5t-116 86t-71.5 132t-24.5 166.5zM1071 403q0 -61 14.5 -116.5t44 -96t74.5 -64.5t105 -24q59 0 104 24t75 64.5t44 96t14 116.5q0 129 -59.5 213t-177.5 84q-119 0 -178.5 -81.5t-59.5 -215.5z" />
<glyph unicode="&#x26;" horiz-adv-x="1492" d="M160 418q0 127 71.5 245.5t206.5 208.5q-152 133 -151 281q0 43 15 90t48 87t85 65.5t126 25.5q55 0 104.5 -17.5t86 -50t58 -81.5t21.5 -113q0 -55 -20 -104t-51 -90t-68 -74t-69 -55q45 -47 78.5 -90.5t43.5 -108.5q66 74 158.5 105.5t198.5 31.5q78 0 162 -12t139 -29 l-23 -108q-49 12 -94 18t-110 10q4 -29 6 -59.5t2 -58.5q0 -141 -43 -247t-116 -175.5t-169 -103.5t-203 -34q-127 0 -220 38t-153.5 99.5t-90 141.5t-29.5 164zM299 416q0 -47 15.5 -102.5t56.5 -103.5t110 -81t178 -33q104 0 177 39t119 102.5t67.5 143.5t21.5 162 q0 27 -3 54.5t-7 55.5q-94 -6 -175 -61t-146 -189l-97 50q16 35 25.5 61.5t9.5 52.5q0 45 -29.5 90t-101.5 119q-100 -63 -160.5 -162.5t-60.5 -197.5zM424 1155q0 -74 34 -124t87 -101q154 98 153 227q0 55 -33.5 103.5t-109.5 48.5q-18 0 -40.5 -6.5t-43 -23.5t-34 -47 t-13.5 -77z" />
<glyph unicode="'" horiz-adv-x="466" d="M156 1333h155l-35 -434h-86z" />
<glyph unicode="(" horiz-adv-x="622" d="M76 584q0 125 28.5 246.5t78.5 232.5t117 207t140 170l88 -74q-66 -78 -120 -170t-93 -191.5t-61.5 -204t-22.5 -206.5q0 -111 22.5 -217.5t61.5 -204.5t93.5 -187t115.5 -165l-84 -76q-74 74 -140.5 168t-115.5 202.5t-78.5 227.5t-29.5 242z" />
<glyph unicode=")" horiz-adv-x="622" d="M90 1366q2 2 15.5 13.5t27.5 23.5t27.5 23.5t17.5 13.5q74 -74 140.5 -170t116.5 -207t79 -232.5t29 -246.5q0 -123 -30 -242t-79 -226.5t-115.5 -201.5t-140.5 -168l-84 74q127 152 210 351.5t83 422.5q0 102 -22.5 205.5t-61.5 204t-94.5 192.5t-118.5 170z" />
<glyph unicode="*" horiz-adv-x="911" d="M154 1061l34 117l234 -99l-16 254h114l-16 -254l233 99l37 -117l-242 -66l162 -196l-96 -74l-135 221l-133 -223l-99 76l158 196z" />
<glyph unicode="+" d="M211 571v131h344v359h135v-359h346v-131h-346v-344h-135v344h-344z" />
<glyph unicode="," horiz-adv-x="417" d="M86 88q0 47 30.5 78t73.5 31q49 0 84 -39t35 -107q0 -88 -47 -151.5t-119 -106.5l-41 51q39 29 65 66t30 84q-45 0 -78 21.5t-33 72.5z" />
<glyph unicode="-" horiz-adv-x="688" d="M109 561v150h475v-150h-475z" />
<glyph unicode="." horiz-adv-x="393" d="M92 88q0 45 30 76t73 31t72.5 -31t29.5 -76q0 -43 -29.5 -73.5t-72.5 -30.5t-73 29.5t-30 74.5z" />
<glyph unicode="/" horiz-adv-x="839" d="M4 -164l696 1657h140l-695 -1657h-141z" />
<glyph unicode="0" d="M74 666q0 147 36.5 273t107.5 218t173.5 144.5t235.5 52.5q127 0 229 -49.5t175 -140.5t113 -216.5t40 -279.5q0 -156 -40 -283t-113 -217t-175 -139t-229 -49q-133 0 -235.5 51t-173.5 142t-107.5 217t-36.5 276zM231 668q0 -115 24 -214.5t73 -173t123.5 -116.5 t175.5 -43q100 0 175 42t124 115.5t73.5 173t24.5 214.5q0 119 -24.5 218t-75 171.5t-125 112.5t-172.5 40t-173 -40t-124 -110.5t-74 -171t-25 -218.5z" />
<glyph unicode="1" d="M412 1092v100q94 8 134 41t62 100h129v-1333h-153v1092h-172z" />
<glyph unicode="2" d="M141 0q10 137 56.5 242.5t117 187.5t160.5 146.5t191 123.5q68 41 115.5 75t76.5 68t42 69.5t13 80.5q0 106 -75.5 162.5t-216.5 56.5q-90 0 -178.5 -32.5t-166.5 -92.5l-88 113q92 72 204 113t233 41q211 0 328.5 -94.5t117.5 -253.5q0 -70 -18.5 -124.5t-58.5 -103.5 t-104.5 -96t-154.5 -100q-104 -59 -175 -110.5t-117 -103t-73.5 -106.5t-43.5 -123h755v-139h-940z" />
<glyph unicode="3" d="M102 162q4 4 19.5 18.5t33 31.5t34 31.5t20.5 18.5q72 -70 162 -105.5t188 -35.5q72 0 134.5 17.5t108.5 50t72.5 81.5t26.5 113q0 63 -24.5 110.5t-65.5 78t-94 45t-113 14.5h-88v127h90q57 0 105.5 18.5t83 50t54 73.5t19.5 89q0 43 -16 83t-52 72t-92.5 51t-138.5 19 q-80 0 -163.5 -31.5t-149.5 -84.5l-94 106q86 72 192.5 111t227.5 39q96 0 178 -23.5t141.5 -68.5t93 -110t33.5 -146q0 -94 -53 -178.5t-168 -131.5v-4q68 -16 116 -49t78.5 -76t45 -91t14.5 -91q0 -94 -38 -169t-105.5 -127t-159.5 -80.5t-201 -28.5q-143 0 -258 49 t-197 133z" />
<glyph unicode="4" d="M78 303v137l741 893h162v-893h180v-137h-180v-303h-143v303h-760zM256 440h582v699z" />
<glyph unicode="5" d="M139 98l70 121q88 -47 189.5 -74.5t195.5 -27.5q172 0 269.5 81t97.5 234q0 70 -25 123t-67 88t-100 52.5t-126 17.5q-90 0 -175 -27t-142 -68q-6 2 -28 11.5t-47.5 19.5t-47 18.5t-25.5 10.5q2 27 5 78t7.5 114.5t9.5 134t9 134t8 116t6 78.5h801v-137h-672 q-2 -31 -5 -89t-8 -121.5t-9 -122t-6 -89.5l4 -2q92 47 174 62.5t160 15.5q106 0 191 -31t143.5 -85t89 -130t30.5 -164q0 -115 -38 -201.5t-107.5 -144t-166.5 -86t-216 -28.5q-127 0 -238.5 30.5t-210.5 87.5z" />
<glyph unicode="6" d="M119 504q0 129 39 272.5t132 266t247.5 208.5t384.5 99v-136q-262 -20 -422 -152t-226 -398h7q41 45 90 74.5t99 46t101.5 23.5t94.5 7q88 0 170 -23.5t146.5 -72.5t103 -125t38.5 -180t-37.5 -185.5t-107.5 -136.5t-165 -83.5t-208 -28.5q-100 0 -189 29.5t-154.5 94 t-104.5 163t-39 237.5zM272 406q0 -53 22.5 -105.5t65.5 -94.5t107.5 -68.5t148.5 -26.5q160 0 258.5 76.5t98.5 215.5q0 147 -95.5 215t-242.5 68q-78 0 -144.5 -18.5t-114.5 -54t-76 -88t-28 -119.5z" />
<glyph unicode="7" d="M139 1194v139h930l2 -153q-98 -106 -184 -238.5t-150.5 -284t-101.5 -317.5t-39 -340h-156q2 154 35 313.5t92.5 314t146.5 299t199 267.5h-774z" />
<glyph unicode="8" d="M111 375q0 51 15 103t48 97.5t84 81t125 58.5v2q-68 20 -110 56t-65.5 76t-30.5 79t-7 65q0 88 35 156t97.5 114t147.5 68.5t183 22.5q94 0 178 -22.5t145.5 -67.5t97.5 -113t36 -156q0 -25 -7.5 -62.5t-30 -77.5t-65.5 -78t-115 -60v-2q74 -18 126.5 -54t86 -81 t50 -98.5t16.5 -106.5q0 -182 -137 -288.5t-389 -106.5q-250 0 -382 104t-132 291zM260 379q0 -68 26.5 -119t76 -86t117 -53.5t149.5 -18.5q80 0 147.5 17.5t116.5 52.5t77.5 84t28.5 115q0 133 -97 202.5t-275 69.5q-168 0 -267.5 -68.5t-99.5 -195.5zM322 995 q0 -53 23.5 -95t64.5 -71.5t97 -45t124 -15.5q139 0 223 60.5t84 160.5q0 49 -18.5 93t-56.5 77t-96 52.5t-138 19.5q-154 0 -230.5 -67.5t-76.5 -168.5z" />
<glyph unicode="9" d="M113 915q0 106 40 187.5t108.5 136.5t163.5 83t206 28q100 0 189 -30t155.5 -92.5t105.5 -161.5t39 -241q0 -129 -39 -272t-132 -266t-247.5 -209t-384.5 -98v133q260 18 419 151t229 400l-4 4q-45 -49 -97.5 -79t-104.5 -46.5t-101.5 -22.5t-88.5 -6q-88 0 -170 22.5 t-145.5 71.5t-102 125t-38.5 182zM262 924q0 -74 25.5 -127.5t72 -88t109.5 -51t137 -16.5q78 0 143.5 19.5t113.5 56.5t76 90t28 119q0 51 -21.5 102t-64.5 92t-107.5 67.5t-150.5 26.5q-80 0 -145.5 -19t-114 -56t-75 -91.5t-26.5 -123.5z" />
<glyph unicode=":" horiz-adv-x="446" d="M123 88q0 45 29.5 76t72.5 31t73 -31t30 -76q0 -43 -30 -73.5t-73 -30.5t-72.5 29.5t-29.5 74.5zM123 756q0 43 29.5 74.5t72.5 31.5t73 -31.5t30 -74.5q0 -45 -30 -75t-73 -30t-72.5 30t-29.5 75z" />
<glyph unicode=";" horiz-adv-x="462" d="M123 90q0 47 30.5 78t73.5 31q49 0 84 -39t35 -107q0 -90 -47 -153.5t-119 -108.5l-41 51q37 29 63.5 66t30.5 84q-45 -4 -77.5 22.5t-32.5 75.5zM131 756q0 43 32 74.5t77 31.5q43 0 73.5 -30.5t30.5 -75.5t-30.5 -76t-73.5 -31q-45 0 -77 31t-32 76z" />
<glyph unicode="&#x3c;" d="M227 592v123q70 33 176.5 88t220 114.5t220 113.5t174.5 89v-147l-627 -318q33 -16 83 -42.5t108.5 -57.5t122 -64.5t122 -65.5t108.5 -57.5t83 -41.5v-148z" />
<glyph unicode="=" d="M217 379v135h813v-135h-813zM217 770v135h813v-135h-813z" />
<glyph unicode="&#x3e;" d="M227 178v148l627 329q-49 23 -135 67t-178 92t-178.5 92t-135.5 67v147q70 -35 176.5 -89t220 -113.5t219 -114.5t175.5 -88v-123z" />
<glyph unicode="?" horiz-adv-x="999" d="M72 969q8 92 47 162.5t97 118.5t133 74t159 26q96 0 171 -28t125 -75t75.5 -110.5t25.5 -135.5q0 -74 -24.5 -133t-61.5 -110t-80 -96.5t-80.5 -93.5t-63.5 -102t-28 -120h-145q0 72 25.5 134.5t62.5 117.5t80 106.5t80 99.5t61.5 96t24.5 101q0 33 -12.5 71t-42 68.5 t-79 51t-120.5 20.5q-70 0 -120 -23.5t-84 -60t-52.5 -79.5t-24.5 -80h-149zM393 86q0 51 32 76.5t71 25.5q43 0 70.5 -29.5t27.5 -72.5t-28.5 -71.5t-71.5 -28.5t-72 27.5t-29 72.5z" />
<glyph unicode="@" horiz-adv-x="1699" d="M143 668q0 154 56.5 284.5t156 227t234.5 151.5t295 55q150 0 273.5 -44t211.5 -125.5t136 -195.5t48 -255q0 -115 -29.5 -205t-80.5 -154.5t-120 -98.5t-144 -34q-25 0 -52.5 6.5t-52 18.5t-43 31.5t-26.5 44.5h-5q-47 -45 -104.5 -72t-116.5 -27q-115 0 -190.5 82 t-75.5 240q0 115 28.5 199t75 138t103.5 80.5t117 26.5q45 0 96 -17t96 -62l6 65h115l-45 -539v-14q0 -45 20.5 -71.5t65.5 -26.5q49 0 95 28.5t80 81t54.5 124t20.5 155.5q0 127 -46 224t-123 164t-177.5 100.5t-208.5 33.5q-137 0 -253 -47t-201 -130t-133 -196.5 t-48 -246.5q0 -145 46 -261t130 -199t199.5 -127t257.5 -44q117 0 208 18.5t193 63.5l35 -96q-100 -37 -202.5 -60.5t-225.5 -23.5q-162 0 -299 50t-237.5 144t-157 229.5t-56.5 305.5zM635 608q0 -106 47 -165.5t129 -59.5q47 0 91 26.5t85 73.5l29 357q-27 37 -72 66.5 t-98 29.5q-51 0 -90 -26.5t-65.5 -71.5t-41 -104.5t-14.5 -125.5z" />
<glyph unicode="A" horiz-adv-x="1271" d="M35 0q133 336 262 666.5t262 666.5h168q131 -336 261 -666.5t263 -666.5h-164q-31 78 -61.5 157t-58.5 158h-650q-29 -80 -60.5 -158.5t-59.5 -156.5h-162zM369 455h544q-68 178 -136 353t-134 355h-6q-29 -78 -61.5 -165t-59.5 -156q-12 -35 -32.5 -86t-42 -107.5 t-41 -109t-31.5 -84.5z" />
<glyph unicode="B" horiz-adv-x="1218" d="M139 0v1333h545q168 0 271.5 -85t103.5 -244q0 -92 -51.5 -170t-141.5 -109v-6q53 -12 99.5 -41t80 -72t52 -96.5t18.5 -114.5q0 -190 -114.5 -292.5t-325.5 -102.5h-537zM287 141h393q141 0 209.5 67.5t68.5 184.5q0 121 -79.5 185.5t-202.5 64.5h-389v-502zM287 782 h389q109 0 169 60.5t60 148.5q0 92 -55 147.5t-166 55.5h-397v-412z" />
<glyph unicode="C" horiz-adv-x="1138" d="M94 668q0 160 41 286.5t116 216t178 137.5t226 48q135 0 238.5 -45t181.5 -137l-108 -109q-68 76 -143.5 110.5t-170.5 34.5q-96 0 -169.5 -40t-125 -112.5t-78 -172t-26.5 -215.5q0 -115 25.5 -215.5t76 -174t126 -115.5t175.5 -42q180 0 316 153l108 -100 q-78 -92 -180 -144t-248 -52q-123 0 -226 47t-177 136t-115 216t-41 289z" />
<glyph unicode="D" horiz-adv-x="1253" d="M150 0v1333h337q135 0 255 -36.5t211 -116.5t143.5 -206t52.5 -306t-53.5 -307.5t-145.5 -207t-213 -116.5t-256 -37h-331zM303 141h182q129 0 223.5 38t157 106.5t93 166t30.5 214.5t-30.5 214t-93 165.5t-157 107.5t-221.5 39h-184v-1051z" />
<glyph unicode="E" horiz-adv-x="1044" d="M135 0v1333h850v-141h-696v-410h495v-141h-495v-500h723v-141h-877z" />
<glyph unicode="F" horiz-adv-x="1013" d="M145 0v1333h856v-143h-702v-424h492v-141h-492v-625h-154z" />
<glyph unicode="G" horiz-adv-x="1216" d="M84 666q0 162 41 288.5t115.5 214.5t178 135.5t226.5 47.5q135 0 239.5 -46t184.5 -141l-111 -106q-133 147 -315 147q-98 0 -173 -40t-125 -112.5t-75.5 -172t-25.5 -215.5q0 -121 25.5 -220.5t76.5 -172t127 -112.5t176 -40q96 0 162 31.5t106.5 83t59 114t18.5 121.5 v47h-225v137h383v-123q0 -129 -36 -232t-102.5 -174t-159.5 -108.5t-210 -37.5q-131 0 -234.5 48t-176 138t-111.5 216t-39 284z" />
<glyph unicode="H" horiz-adv-x="1273" d="M133 0v1333h156v-565h694v565h156v-1333h-156v625h-694v-625h-156z" />
<glyph unicode="I" horiz-adv-x="497" d="M170 0v1333h158v-1333h-158z" />
<glyph unicode="J" horiz-adv-x="1124" d="M55 291l148 55q43 -106 113.5 -163.5t193.5 -57.5q172 0 240.5 107.5t68.5 304.5v796h156v-813q0 -274 -115 -407t-354 -133q-184 0 -290.5 81.5t-160.5 229.5z" />
<glyph unicode="K" horiz-adv-x="1185" d="M133 0v1333h156v-747h4l176 235l399 512h181l-369 -467q18 -37 55 -104.5t83 -152.5t95.5 -176t94.5 -176t81.5 -152.5t55.5 -104.5h-178q-16 33 -47 90t-69 128t-79 148.5t-79 148.5t-68.5 129t-46.5 91q-20 -27 -60.5 -77t-84.5 -106t-84 -106.5t-60 -76.5v-369h-156z " />
<glyph unicode="L" horiz-adv-x="993" d="M133 0v1333h156v-1190h690v-143h-846z" />
<glyph unicode="M" horiz-adv-x="1460" d="M141 0v1333h158q25 -55 58.5 -129t72.5 -157.5t78 -173t74 -171.5l143 -335h8q37 84 73 165.5t71 167.5q8 18 30.5 67.5t51 115t61.5 137.5t61.5 135.5t50 111.5t29.5 66h156v-1333h-152v985h-4l-119 -283q-45 -98 -90 -198.5t-87 -191.5t-77.5 -167.5t-62.5 -132.5 q-61 123 -119 250q-25 53 -51.5 112.5l-53 119t-52 117t-46.5 110.5q-12 29 -29.5 72t-33.5 84t-28.5 72.5t-14.5 37.5h-4v-987h-152z" />
<glyph unicode="N" horiz-adv-x="1249" d="M131 0v1333h152q119 -182 236.5 -360t236.5 -359q25 -37 52.5 -79.5t55 -88t53 -87.5t48.5 -74h4v1048h153v-1333h-143q-49 74 -117.5 179.5t-147.5 225t-160 243.5t-153 235q-35 53 -66.5 104t-45.5 76h-4v-1063h-154z" />
<glyph unicode="O" horiz-adv-x="1300" d="M94 666q0 147 38 273t108.5 218t174 144.5t234.5 52.5q127 0 229.5 -49.5t175 -140.5t112.5 -216.5t40 -279.5q0 -156 -40 -283t-112.5 -217t-175 -139t-229.5 -49q-133 0 -235.5 51t-174 142t-108.5 217t-37 276zM252 668q0 -113 24.5 -212.5t74.5 -174t125 -117.5 t173 -43q100 0 175 44t124 117.5t74 173t25 210.5q0 117 -25 217t-75 173.5t-124.5 114.5t-173.5 41q-98 0 -173 -41t-124 -113.5t-74.5 -172t-25.5 -217.5z" />
<glyph unicode="P" horiz-adv-x="1130" d="M135 0v1333h543q94 0 172 -24.5t135 -75.5t89 -127t32 -176q0 -104 -33 -181t-91 -129.5t-139 -78t-179 -25.5h-377v-516h-152zM287 657h387q131 0 202.5 70t71.5 199t-74.5 198.5t-197.5 69.5h-389v-537z" />
<glyph unicode="Q" horiz-adv-x="1304" d="M102 668q0 156 40 282.5t112 216.5t174 138.5t229 48.5t229.5 -48.5t175.5 -137.5t112.5 -215.5t39.5 -282.5q0 -186 -57 -328.5t-162 -235.5l82 -126l-114 -76l-82 127q-55 -27 -109.5 -38t-114.5 -11q-127 0 -229 48t-174 137t-112 216t-40 285zM260 670 q0 -117 24.5 -218.5t74 -175t124 -115.5t174.5 -42q35 0 74 6t74 22l-94 146l114 72l88 -138q78 82 111 195t33 246q0 119 -25.5 218t-76 171.5t-125 113.5t-173.5 41q-98 0 -172.5 -39.5t-125 -111.5t-75 -172.5t-24.5 -218.5z" />
<glyph unicode="R" horiz-adv-x="1193" d="M133 0v1333h549q92 0 171 -24.5t135 -73.5t88 -124t32 -177q0 -154 -73.5 -252t-207.5 -135l267 -547h-179l-241 526h-389v-526h-152zM285 664h393q131 0 202.5 70.5t71.5 195.5q0 129 -75.5 196.5t-198.5 67.5h-393v-530z" />
<glyph unicode="S" horiz-adv-x="1093" d="M98 154l103 112q76 -68 169 -106.5t191 -38.5q145 0 232.5 52t87.5 177q0 57 -26 98t-71 71t-106.5 51.5t-130.5 43.5q-96 31 -172 62t-129 73t-82 101t-29 145q0 80 33 146.5t91 114t139 73t175 25.5q123 0 227.5 -37t190.5 -107q-4 -6 -18.5 -22.5t-29.5 -34.5 t-29.5 -34.5t-18.5 -20.5q-74 59 -156 86.5t-182 27.5q-129 0 -197.5 -59t-68.5 -149q0 -49 22.5 -85t58.5 -60.5t82 -43t93 -35.5q76 -25 162 -52.5t159.5 -73.5t122.5 -116.5t49 -183.5q0 -172 -121.5 -273t-367.5 -101q-135 0 -251 47t-202 127z" />
<glyph unicode="T" horiz-adv-x="1028" d="M39 1192v141h965v-141h-408v-1192h-152v1192h-405z" />
<glyph unicode="U" horiz-adv-x="1261" d="M135 555v778h154v-772q0 -201 86 -318.5t260 -117.5q180 0 264 113.5t84 310.5v784h156v-780q0 -291 -133.5 -432t-374.5 -141q-238 0 -367 144t-129 431z" />
<glyph unicode="V" horiz-adv-x="1218" d="M55 1333h166l303 -860l90 -268h7q31 90 60.5 178t57.5 178l271 772h164l-469 -1333h-177z" />
<glyph unicode="W" horiz-adv-x="1542" d="M53 1333h158q6 -31 18.5 -92t27.5 -136t30.5 -157t31 -156.5t27.5 -135t19 -91.5l65 -332h4l80 330q8 31 23.5 92.5t33 136t38 156.5t38 157t32.5 135t23 93h150q8 -31 23.5 -92t34 -137t39 -160t39 -159.5t33.5 -137t23 -92.5l76 -322h2q6 27 15.5 71t18.5 91t17.5 90 t14.5 70l158 778h151q-12 -55 -33.5 -159.5t-49.5 -234.5t-58.5 -272.5t-58 -272.5t-50 -234.5t-35.5 -159.5h-180q-8 31 -22.5 90.5t-31.5 132t-35.5 153.5t-36 153.5t-32 132t-22.5 90.5q-2 8 -12.5 54t-23.5 100.5t-24.5 100.5l-13.5 54h-4l-74 -305q-8 -31 -22 -90.5 t-32.5 -133t-38 -154.5t-37 -154.5t-32 -133t-22.5 -90.5h-178z" />
<glyph unicode="X" horiz-adv-x="1124" d="M59 0l422 684l-395 649h182l295 -510l299 510h174l-393 -645l420 -688h-180l-324 553l-321 -553h-179z" />
<glyph unicode="Y" horiz-adv-x="1146" d="M16 1333h177l380 -719l383 719h172l-479 -860v-473h-153v473z" />
<glyph unicode="Z" horiz-adv-x="1132" d="M76 0v139l815 1053h-776v141h956v-141l-813 -1051h809v-141h-991z" />
<glyph unicode="[" horiz-adv-x="636" d="M141 -231v1669h410v-131h-260v-1405h260v-133h-410z" />
<glyph unicode="\" horiz-adv-x="839" d="M4 1493h139l697 -1657h-142z" />
<glyph unicode="]" horiz-adv-x="653" d="M135 -98h260v1405h-260v131h410v-1669h-410v133z" />
<glyph unicode="^" horiz-adv-x="1064" d="M127 686l352 647h119l350 -647h-143l-268 514l-271 -514h-139z" />
<glyph unicode="_" horiz-adv-x="1017" d="M0 -143h1018v-111h-1018v111z" />
<glyph unicode="`" horiz-adv-x="989" d="M293 1460l170 31l147 -326l-78 -26z" />
<glyph unicode="a" horiz-adv-x="976" d="M72 297q0 74 27.5 133t77.5 101t119 64.5t150 22.5q66 0 132.5 -13t140.5 -54v123q0 115 -58.5 167t-175.5 52q-74 0 -137 -18.5t-127 -49.5l-49 115q72 35 152 56.5t178 21.5q174 0 267 -81t93 -243v-694h-143v98h-4q-80 -72 -159 -94t-150 -22q-59 0 -119 17t-108 55 t-77.5 97.5t-29.5 145.5zM215 301q0 -98 57.5 -149.5t165.5 -51.5q80 4 153 43t128 95v190q-61 35 -122.5 55.5t-147.5 20.5q-98 0 -166 -52.5t-68 -150.5z" />
<glyph unicode="b" horiz-adv-x="1026" d="M115 0v1352l145 65v-522h4q82 72 151.5 97.5t137.5 25.5q72 0 140.5 -27.5t120.5 -88t84 -158t32 -234.5q0 -135 -33 -234.5t-87 -166t-124 -98t-143 -31.5q-68 0 -137.5 22.5t-141.5 93.5h-4v-96h-145zM260 246q43 -55 109.5 -99.5t150.5 -44.5q57 0 106.5 28t84 78 t55 120.5t20.5 156.5q0 199 -66.5 302.5t-201.5 103.5q-39 0 -75.5 -12.5t-70.5 -33t-62.5 -46t-49.5 -49.5v-504z" />
<glyph unicode="c" horiz-adv-x="897" d="M94 500q0 125 32 221t89 162.5t133 100.5t166 34q201 0 328 -141l-97 -97q-55 59 -112.5 84t-122.5 25q-63 0 -113.5 -30t-85.5 -82t-53 -122.5t-18 -154.5t17 -155t53 -123t87.5 -81.5t118.5 -29.5q68 0 122 25.5t110 82.5l96 -88q-59 -70 -138 -110.5t-196 -40.5 q-86 0 -162 31.5t-132 96t-89 163t-33 229.5z" />
<glyph unicode="d" horiz-adv-x="1019" d="M92 479q0 145 37 247.5t95.5 167t132 94.5t147.5 30q143 0 254 -105h4v439l145 65v-1417h-145v98h-4q-74 -74 -147.5 -96t-143.5 -22q-74 0 -141.5 28.5t-119.5 90t-83 155.5t-31 225zM236 492q0 -180 71.5 -285t194.5 -105q84 0 150.5 44t111.5 100v506 q-41 55 -107.5 97t-142.5 42q-131 0 -204.5 -104.5t-73.5 -294.5z" />
<glyph unicode="e" horiz-adv-x="1001" d="M92 498q0 121 33 217t89 163.5t133 103.5t167 36q100 0 177 -36t129 -102.5t80 -159.5t28 -208v-68h-690q10 -166 92 -252t198 -86q66 0 127.5 27t108.5 70l86 -92q-137 -131 -336 -131q-84 0 -161 32.5t-135 98t-92 163t-34 224.5zM238 561h546q0 68 -16 128.5 t-50 104.5t-85 70.5t-123 26.5q-53 0 -100.5 -23.5t-84 -67.5t-60 -104.5t-27.5 -134.5z" />
<glyph unicode="f" horiz-adv-x="585" d="M63 879v120h130v191q0 117 64.5 169t168.5 52q25 0 63.5 -2t63.5 -6l-4 -119q-23 2 -42.5 2h-35.5q-63 0 -97 -22.5t-34 -87.5v-177h211v-120h-211v-879h-147v879h-130z" />
<glyph unicode="g" horiz-adv-x="1024" d="M94 502q0 131 34 227t88 160.5t124 96.5t141 32q68 0 138.5 -23.5t138.5 -93.5h4v98h147v-929q0 -180 -93 -308.5t-310 -185.5l-47 123q100 33 160.5 72t93 82t43 89t10.5 89v78h-4q-84 -74 -153.5 -98.5t-135.5 -24.5q-74 0 -142.5 26.5t-120.5 87t-84 158.5t-32 244z M238 510q0 -199 67.5 -299t202.5 -100q78 0 146.5 45t109.5 98v496q-43 55 -109.5 100t-150.5 45q-57 0 -106.5 -28.5t-84 -79t-55 -121t-20.5 -156.5z" />
<glyph unicode="h" horiz-adv-x="997" d="M115 0v1352l145 65v-557h6q55 84 137 121t156 37q174 0 257 -101.5t83 -293.5v-623h-147v600q0 141 -55.5 216t-180.5 75q-92 0 -157.5 -60.5t-88.5 -148.5q-10 -37 -10 -86v-596h-145z" />
<glyph unicode="i" horiz-adv-x="468" d="M141 1268q0 39 28 65.5t64 26.5q39 0 67 -26.5t28 -65.5q0 -37 -28 -64.5t-64 -27.5q-39 0 -67 27.5t-28 64.5zM162 0v999h145v-999h-145z" />
<glyph unicode="j" horiz-adv-x="468" d="M-35 -279q72 12 114 31t63.5 48.5t26.5 71.5t5 101v1026h145v-1009q0 -92 -12 -164t-48 -121t-103.5 -75.5t-178.5 -30.5zM158 1268q0 39 26.5 65.5t65.5 26.5q37 0 64.5 -26.5t27.5 -65.5q0 -37 -27.5 -64.5t-64.5 -27.5q-39 0 -65.5 27.5t-26.5 64.5z" />
<glyph unicode="k" horiz-adv-x="894" d="M115 0v1352l143 65v-923h4q12 14 32.5 42.5t42 57.5t41 54.5t28.5 37.5l241 311h178l-256 -323q12 -29 36 -82t52.5 -118.5t60.5 -137.5t60.5 -137.5t52 -118.5t35.5 -80h-159l-238 553l-211 -268v-285h-143z" />
<glyph unicode="l" horiz-adv-x="419" d="M137 0v1352l146 67v-1419h-146z" />
<glyph unicode="m" horiz-adv-x="1550" d="M111 0v999h145v-137h6q53 88 130 121t149 33q102 0 172.5 -46t101.5 -132h2q74 100 153 139t163 39q172 0 243.5 -101.5t71.5 -291.5v-623h-145v600q0 135 -44.5 212t-166.5 77q-43 0 -80 -16.5t-68 -45t-52.5 -66.5t-29.5 -81q-10 -37 -10 -76v-604h-145v608 q0 131 -45.5 206t-165.5 75q-88 0 -146.5 -56.5t-81.5 -142.5q-4 -23 -8 -47.5t-4 -48.5v-594h-145z" />
<glyph unicode="n" horiz-adv-x="997" d="M113 0v999h145v-141l4 -2q55 86 137 124t158 38q174 0 257 -101.5t83 -293.5v-623h-147v600q0 141 -55.5 216t-180.5 75q-92 0 -157.5 -60.5t-88.5 -146.5q-10 -41 -10 -88v-596h-145z" />
<glyph unicode="o" horiz-adv-x="1050" d="M92 500q0 125 33 222t91 162.5t137 99.5t171 34t172 -35t138.5 -101.5t91 -161.5t32.5 -216q0 -125 -33.5 -222.5t-92 -165t-138.5 -102t-174 -34.5q-96 0 -175 35.5t-135 103t-87 164t-31 217.5zM240 504q0 -180 76.5 -287.5t211.5 -107.5q72 0 125.5 31.5t89 85t53 124 t17.5 150.5q0 84 -18.5 155.5t-55.5 123.5t-92 82t-127 30q-68 0 -121 -31t-88 -83t-53 -122.5t-18 -150.5z" />
<glyph unicode="p" horiz-adv-x="1024" d="M115 -393v1394h145v-100h4q70 68 143.5 93.5t143.5 25.5q72 0 140.5 -29.5t121.5 -92t85 -159t32 -231.5q0 -141 -36 -241.5t-94.5 -163t-130 -92t-145.5 -29.5q-72 0 -135 24.5t-127 87.5h-4v-420zM258 248q41 -55 108.5 -97t141.5 -42q135 0 206.5 103t71.5 298 q0 180 -73.5 282.5t-192.5 102.5q-86 0 -152.5 -43t-109.5 -98v-506z" />
<glyph unicode="q" horiz-adv-x="1019" d="M92 510q0 131 34 226t88 157.5t124 93.5t141 31q68 0 138.5 -22.5t140.5 -94.5h4v98h145v-1327l-145 -65v495h-4q-82 -72 -151.5 -97t-135.5 -25q-74 0 -142.5 28.5t-120.5 91t-84 164t-32 246.5zM236 518q0 -199 67.5 -305.5t202.5 -106.5q78 0 146.5 45.5t109.5 96.5 v502q-43 55 -109.5 100t-150.5 45q-57 0 -105.5 -26.5t-84.5 -76t-56 -119t-20 -155.5z" />
<glyph unicode="r" horiz-adv-x="714" d="M145 0v999h146v-137l4 -2q41 84 115.5 121t158.5 37q63 0 136 -23l-33 -143q-35 6 -66 10t-59 4q-127 0 -191.5 -73.5t-64.5 -208.5v-584h-146z" />
<glyph unicode="s" horiz-adv-x="897" d="M78 74l55 112q78 -41 158 -62.5t149 -21.5q41 0 83 8.5t76 27t54.5 47t20.5 69.5q0 43 -19.5 72.5t-53.5 52t-80 40t-101 36.5q-70 20 -128.5 46.5t-101.5 61.5t-66.5 80t-23.5 105q0 59 26 109t73 86t113.5 55.5t150.5 19.5q170 0 315 -74l-49 -117q-74 39 -145.5 52.5 t-122.5 13.5q-98 0 -158.5 -40t-60.5 -95q0 -53 46 -95t173 -79q76 -23 140.5 -49.5t112.5 -63.5t75.5 -87t27.5 -120t-29.5 -123t-81 -89t-121 -54t-149.5 -18q-92 0 -186 24.5t-172 69.5z" />
<glyph unicode="t" horiz-adv-x="641" d="M55 877v122h154v242l137 62v-304h209v-122h-209v-641q0 -68 26.5 -93.5t84.5 -25.5q29 0 59.5 4t71.5 10q0 -4 2 -20.5t4 -35t4 -34.5t2 -21q-33 -14 -86 -24t-98 -10q-109 0 -159 56t-50 173v662h-152z" />
<glyph unicode="u" horiz-adv-x="995" d="M106 362v637h146v-602q0 -147 53 -219t178 -72q92 0 154.5 58.5t85.5 144.5q12 43 12 94v596h146v-999h-146v139h-6q-55 -86 -134 -122.5t-153 -36.5q-336 0 -336 382z" />
<glyph unicode="v" horiz-adv-x="921" d="M23 999h151q47 -145 96 -286.5t99 -284.5q6 -20 18 -55t25.5 -74t25 -75t17.5 -56h6q23 66 43 130t41 130q49 143 96 284.5t96 286.5h150l-355 -999h-151z" />
<glyph unicode="w" horiz-adv-x="1275" d="M25 999h147l121 -491l63 -285h6l74 289l129 487h133l136 -510l63 -266h6l64 269l127 507h147q-70 -252 -137.5 -499.5t-134.5 -499.5h-135l-164 621l-39 159h-4q-12 -53 -26.5 -105t-29.5 -106l-151 -569h-129z" />
<glyph unicode="x" horiz-adv-x="858" d="M35 0l311 516l-289 483h166l205 -360l207 360h162l-291 -477l313 -522h-172l-223 395l-225 -395h-164z" />
<glyph unicode="y" horiz-adv-x="948" d="M31 999h153l185 -528l100 -301h6q27 76 52.5 150.5t50.5 150.5q16 45 41.5 115.5t53 147.5t52.5 148.5t41 116.5h147q-125 -344 -250.5 -692t-250.5 -690h-136l130 369z" />
<glyph unicode="z" horiz-adv-x="921" d="M80 0v119q25 35 70 94t101 131t115.5 150.5t116 150.5t101.5 131.5t69 93.5l-2 7h-532v122h712v-116q-27 -35 -71.5 -94.5t-100 -132t-116 -150.5t-116.5 -150.5t-101 -132t-70 -94.5l2 -4h573v-125h-751z" />
<glyph unicode="{" horiz-adv-x="649" d="M104 545v100q43 4 71 27.5t44.5 58.5t23.5 79t7 89v246q0 125 59.5 196.5t184.5 71.5h96v-117h-80q-35 0 -58.5 -15t-37 -42t-18.5 -63.5t-5 -77.5v-207q0 -125 -47 -197.5t-104 -95.5v-8q29 -10 56.5 -32.5t49 -58.5t33.5 -86.5t12 -117.5v-209q0 -41 5 -78t18.5 -63.5 t37 -42t58.5 -15.5h80v-116h-98q-123 0 -182.5 71.5t-59.5 196.5v256q0 43 -7 85t-24.5 77t-45.5 58.5t-69 29.5z" />
<glyph unicode="|" horiz-adv-x="473" d="M180 -252v1784h135v-1784h-135z" />
<glyph unicode="}" horiz-adv-x="649" d="M106 -113h80q70 0 94.5 57.5t24.5 141.5v209q0 135 46 204.5t106 90.5v8q-59 23 -105.5 95.5t-46.5 197.5v207q0 41 -5 77.5t-18.5 63.5t-37 42t-58.5 15h-80v117h97q123 0 182 -71.5t59 -196.5v-246q0 -45 7.5 -89t25 -79t45 -58.5t70.5 -27.5v-100q-41 -6 -69.5 -29.5 t-46 -58.5t-25 -77t-7.5 -85v-256q0 -125 -58 -196.5t-181 -71.5h-99v116z" />
<glyph unicode="~" d="M162 618q25 55 57.5 93.5t68.5 61t72.5 32.5t69.5 10q53 0 108.5 -20.5t108.5 -46t102.5 -46t92.5 -20.5q59 0 100 29.5t80 89.5l84 -53q-92 -193 -266 -193q-49 0 -103.5 21.5t-108 46t-104.5 46t-96 21.5q-59 0 -99 -32.5t-79 -84.5z" />
<glyph unicode="&#xa1;" horiz-adv-x="514" d="M166 891q0 43 29.5 72.5t72.5 29.5t72 -28.5t29 -71.5q0 -51 -31 -78t-70 -27q-45 0 -73.5 30t-28.5 73zM193 168l32 436h88l31 -434v-524h-151v522z" />
<glyph unicode="&#xa2;" d="M240 498q0 113 26.5 204t74.5 155.5t114.5 103t146.5 51.5v221h109v-217q168 -16 286 -148l-94 -94q-59 59 -113.5 87t-125.5 28q-66 0 -118 -30t-87 -81t-53.5 -122.5t-18.5 -153.5q0 -84 17.5 -156t52.5 -124t88 -82.5t127 -30.5q72 0 125 28.5t108 85.5l94 -82 q-49 -66 -119.5 -107.5t-168.5 -49.5v-226h-109v228q-78 10 -144.5 48t-114.5 102.5t-75.5 154.5t-27.5 207z" />
<glyph unicode="&#xa3;" d="M162 551v123h164q-10 45 -25.5 86t-29 80t-22.5 78.5t-9 82.5q0 70 28.5 133.5t83 112.5t131 78t172.5 29q158 0 259.5 -58.5t166.5 -158.5l-125 -84q-53 76 -124.5 120t-176.5 44q-43 0 -90 -13.5t-85 -41t-62.5 -71.5t-24.5 -106q0 -33 10.5 -68.5t23.5 -75.5t26.5 -81 t21.5 -84h318v-123h-304v-27q0 -104 -36.5 -204.5t-114.5 -186.5h745v-135h-919v137q88 88 131 183.5t45 230.5h-178z" />
<glyph unicode="&#xa4;" d="M94 276l139 136q-43 63 -62 124.5t-19 120.5q0 66 21.5 130.5t59.5 117.5l-139 139q23 23 44.5 45.5t43.5 45.5l140 -140q53 39 115.5 59.5t133.5 20.5q131 0 246 -80l139 140l91 -93l-142 -137q80 -115 80 -246q0 -68 -20.5 -129t-59.5 -118l142 -133l-91 -93 q-35 35 -69.5 70t-69.5 70q-59 -45 -120.5 -63.5t-127.5 -18.5t-126 18.5t-119 63.5l-142 -142zM276 657q0 -59 23 -112t62.5 -93t93 -62.5t112.5 -22.5t112.5 22.5t93.5 62.5t63.5 93t23.5 112q0 61 -22.5 114.5t-62.5 93.5t-93 62.5t-115 22.5q-59 0 -112.5 -22.5 t-93 -62.5t-62.5 -93.5t-23 -114.5z" />
<glyph unicode="&#xa5;" d="M100 1333h179l350 -684l352 684h174l-256 -461h203v-118h-268l-86 -154h354v-119h-400v-481h-153v481h-391v119h346l-86 154h-260v118h196z" />
<glyph unicode="&#xa6;" horiz-adv-x="473" d="M180 -383v887h135v-887h-135zM180 641v891h135v-891h-135z" />
<glyph unicode="&#xa7;" horiz-adv-x="1134" d="M174 -109l59 115q82 -41 170.5 -64.5t161.5 -23.5q45 0 92.5 8t86 26.5t62 48.5t23.5 71q0 37 -22.5 66.5t-62 52t-93 43t-114.5 38.5q-74 23 -135.5 50.5t-106.5 62.5t-70.5 79t-25.5 101q0 92 60 157.5t169 94.5l41 -121q-57 -16 -91 -49t-34 -72q0 -53 54.5 -93 t181.5 -81q80 -25 151.5 -52t126.5 -64t88 -86t33 -117q0 -70 -34 -123t-91 -90t-133 -55.5t-160 -18.5q-96 0 -199.5 25.5t-187.5 70.5zM205 1178q0 121 99 195.5t282 74.5q178 0 332 -74l-56 -117q-78 39 -151.5 53.5t-126.5 14.5q-109 0 -171.5 -41t-62.5 -96 q0 -53 52.5 -93t181.5 -81q80 -27 148.5 -54.5t118.5 -62.5t77.5 -83t27.5 -116q0 -96 -57 -159.5t-151 -96.5l-50 115q47 18 78 50t31 81q0 39 -20.5 66.5t-55.5 50t-84 42t-106 38.5q-74 25 -135.5 50.5t-105.5 59t-69.5 78.5t-25.5 105z" />
<glyph unicode="&#xa8;" horiz-adv-x="989" d="M229 1284q0 39 28 64.5t65 25.5q35 0 62.5 -25.5t27.5 -64.5q0 -37 -28 -63.5t-62 -26.5q-37 0 -65 26.5t-28 63.5zM625 1284q0 39 26.5 64.5t65.5 25.5q35 0 61.5 -25.5t26.5 -64.5q0 -37 -26.5 -63.5t-61.5 -26.5q-37 0 -64.5 26.5t-27.5 63.5z" />
<glyph unicode="&#xa9;" horiz-adv-x="1542" d="M106 666q0 147 51.5 273t141.5 218t213 144.5t266 52.5t266 -52.5t213.5 -144.5t142.5 -218t52 -273q0 -145 -52 -271.5t-142.5 -218.5t-213.5 -144t-266 -52t-266 52t-213 144t-141.5 218t-51.5 272zM203 666q0 -125 44 -233.5t120.5 -188.5t182 -125t228.5 -45 t228.5 45t182.5 125t121 188.5t44 233.5t-44 233.5t-121 188t-182.5 124.5t-228.5 45t-228.5 -45t-182 -124.5t-120.5 -188t-44 -233.5zM446 662q0 94 25 170.5t70 131t107.5 84t137.5 29.5q92 0 157 -36.5t110 -108.5l-88 -51q-35 49 -77 74.5t-102 25.5q-117 0 -175 -89 t-58 -230q0 -139 58.5 -228.5t174.5 -89.5q66 0 107 24.5t80 73.5l84 -53q-107 -141 -271 -141q-78 0 -141 29.5t-107 84t-68 131t-24 169.5z" />
<glyph unicode="&#xaa;" horiz-adv-x="679" d="M57 739q0 98 74 157.5t191 59.5q45 0 86 -8t90 -30v63q0 129 -146 129q-49 0 -93 -13.5t-91 -35.5q-2 2 -8 17.5t-14.5 31.5t-14.5 30.5t-6 16.5q53 27 111 42t124 15q125 0 190.5 -55t65.5 -166v-456h-118v59q-57 -41 -106.5 -55.5t-96.5 -14.5q-43 0 -85 11.5t-76 37 t-55.5 66.5t-21.5 98zM172 743q0 -55 40 -88.5t105 -33.5q47 0 96.5 25.5t84.5 60.5v112q-41 20 -78 31.5t-96 11.5q-61 0 -106.5 -30.5t-45.5 -88.5z" />
<glyph unicode="&#xab;" horiz-adv-x="974" d="M106 502l281 422h139l-278 -422l278 -420h-139zM475 502l281 422h137l-277 -422l277 -420h-137z" />
<glyph unicode="&#xac;" d="M217 588v135h811v-469h-143v334h-668z" />
<glyph unicode="&#xad;" horiz-adv-x="688" d="M109 561v150h475v-150h-475z" />
<glyph unicode="&#xae;" horiz-adv-x="1077" d="M135 958q0 88 31 163t85 130.5t128 86t160 30.5t159.5 -30.5t128 -86t85 -130t30.5 -163.5q0 -88 -30.5 -162.5t-85 -129t-128 -85t-159.5 -30.5t-160 30.5t-128 85t-85 129t-31 162.5zM203 958q0 -74 25.5 -136t70.5 -109t106.5 -74t133.5 -27t133 27t105 74t69.5 109.5 t25.5 135.5q0 74 -25.5 137.5t-69.5 110.5t-105 74t-133 27t-133.5 -27t-106.5 -73t-70.5 -110.5t-25.5 -138.5zM383 721v477h192q68 0 111 -37t43 -110q0 -96 -88 -140q8 -14 20.5 -39.5t26.5 -54.5t26.5 -55.5t20.5 -40.5h-88l-86 180h-104v-180h-74zM457 969h116 q41 0 61.5 21.5t20.5 58.5q0 80 -82 79h-116v-159z" />
<glyph unicode="&#xaf;" horiz-adv-x="985" d="M295 1239v113h496v-113h-496z" />
<glyph unicode="&#xb0;" horiz-adv-x="884" d="M150 1049q0 61 22.5 114.5t61 92t91 60t111.5 21.5t111.5 -21.5t90.5 -60t59.5 -92t21.5 -114.5q0 -63 -21.5 -116.5t-59.5 -91.5t-90 -59.5t-112 -21.5q-59 0 -111.5 21.5t-91 59.5t-61 91t-22.5 117zM248 1049q0 -41 14 -77t40 -62.5t60.5 -42t73.5 -15.5 q78 0 132.5 55.5t54.5 141.5q0 41 -14.5 76.5t-40 61t-59.5 41t-73 15.5t-73.5 -15.5t-60.5 -41t-40 -61t-14 -76.5z" />
<glyph unicode="&#xb1;" d="M211 188v123h823v-123h-823zM211 774v131h344v361h137v-361h344v-131h-344v-342h-137v342h-344z" />
<glyph unicode="&#xb2;" horiz-adv-x="813" d="M86 715q6 88 37 153.5t77 116.5t106.5 90t125.5 74q82 45 116 76.5t34 79.5q0 53 -45 83.5t-127 30.5q-55 0 -112.5 -22.5t-111.5 -57.5q-20 23 -37.5 43.5t-37.5 42.5q68 53 146.5 80t156.5 27q141 0 220 -59.5t79 -157.5q0 -86 -53.5 -141.5t-170.5 -118.5 q-115 -59 -170 -111.5t-75 -116.5h475v-112h-633z" />
<glyph unicode="&#xb3;" horiz-adv-x="813" d="M86 815l82 90q49 -47 109.5 -69.5t115.5 -22.5q100 0 150.5 37t50.5 102q0 66 -47 96.5t-117 30.5h-82v107h84q63 0 103 34.5t40 82.5q0 45 -39.5 80.5t-134.5 35.5q-47 0 -99 -20.5t-97 -52.5l-70 84q59 49 131 74.5t150 25.5q135 0 214 -57.5t79 -159.5 q0 -51 -31 -100.5t-92 -77.5q78 -29 110.5 -81.5t32.5 -101.5q0 -61 -25.5 -108t-70.5 -79t-106.5 -48.5t-133.5 -16.5q-92 0 -170 32t-137 83z" />
<glyph unicode="&#xb4;" horiz-adv-x="989" d="M416 1165l143 330l168 -31l-233 -325z" />
<glyph unicode="&#xb5;" horiz-adv-x="1009" d="M115 -371v1372h147v-593q0 -160 58.5 -232t177.5 -72q90 0 151.5 56.5t85.5 142.5q14 45 15 105v593h145v-1001h-145v137h-5q-53 -84 -126.5 -119.5t-141.5 -35.5q-70 0 -122 22.5t-93 63.5h-2v-373q-37 -16 -72.5 -32.5t-72.5 -33.5z" />
<glyph unicode="&#xb6;" horiz-adv-x="999" d="M78 956q0 76 27.5 142.5t76.5 117t117 80t147 29.5h191v-735h-191q-80 0 -147.5 28.5t-116.5 77.5t-76.5 116t-27.5 144zM494 -279q100 10 154 36t81 64t32 87t5 106v1311h111v-1327q0 -90 -15.5 -158.5t-56.5 -117t-114 -76t-189 -33.5z" />
<glyph unicode="&#xb7;" horiz-adv-x="477" d="M133 633q0 47 31 78.5t76 31.5t76.5 -31.5t31.5 -78.5t-30.5 -78t-77.5 -31q-45 0 -76 31t-31 78z" />
<glyph unicode="&#xb8;" horiz-adv-x="1042" d="M401 -383l27 74q72 -27 131 -27q47 0 75 20.5t28 57.5q0 43 -32 65.5t-77 22.5q-4 0 -9 -1t-9 -1l-41 43l61 186l76 -6q-12 -35 -24.5 -70.5t-22.5 -70.5q57 -6 94 -23.5t58.5 -41t29.5 -50t8 -49.5q0 -27 -11 -55.5t-36 -53t-65 -40t-99 -15.5q-33 0 -73.5 7.5 t-88.5 27.5z" />
<glyph unicode="&#xb9;" horiz-adv-x="622" d="M154 1348v88q59 6 85.5 26.5t43.5 59.5h108v-807h-131v633h-106z" />
<glyph unicode="&#xba;" horiz-adv-x="722" d="M53 872q0 82 23.5 145.5t64.5 107.5t96.5 66.5t120.5 22.5q66 0 122.5 -23.5t98.5 -67.5t65.5 -107.5t23.5 -143.5q0 -84 -23.5 -148.5t-65.5 -109.5t-99.5 -67.5t-123.5 -22.5q-63 0 -118.5 23.5t-96.5 69t-64.5 110t-23.5 145.5zM178 872q0 -111 48 -176t134 -65 q88 0 134.5 71.5t46.5 169.5q0 100 -47.5 168t-137.5 68t-134 -68.5t-44 -167.5z" />
<glyph unicode="&#xbb;" horiz-adv-x="974" d="M111 82l278 420l-278 422h141l278 -422l-280 -420h-139zM479 82l277 420l-277 422h139l281 -422l-281 -420h-139z" />
<glyph unicode="&#xbc;" horiz-adv-x="1689" d="M195 1161v88q59 6 85.5 26.5t43.5 59.5h108v-807h-131v633h-106zM268 -43l840 1425h131l-842 -1425h-129zM768 176v98l483 531h125v-520h117v-109h-117v-176h-123v176h-485zM936 285h317v348q-80 -88 -159.5 -174t-157.5 -174z" />
<glyph unicode="&#xbd;" horiz-adv-x="1689" d="M176 1161v88q59 6 86 26.5t43 59.5h109v-807h-131v633h-107zM219 -43l840 1425h131l-842 -1425h-129zM881 0q6 88 36.5 154.5t76.5 118t106.5 90t126.5 73.5q82 43 115.5 75t33.5 79q0 53 -45 84t-127 31q-55 0 -112.5 -23t-110.5 -57q-20 23 -37.5 43t-38.5 43 q68 53 146.5 78.5t156.5 25.5q141 0 220 -58.5t79 -156.5q0 -86 -53 -141.5t-170 -118.5q-115 -59 -170 -111.5t-76 -115.5h475v-113h-632z" />
<glyph unicode="&#xbe;" horiz-adv-x="1689" d="M61 631l82 90q49 -47 109.5 -69.5t116.5 -22.5q100 0 150 36.5t50 102.5t-47 96.5t-116 30.5h-82v106h84q63 0 103 35t40 82q0 45 -40 81t-134 36q-47 0 -99.5 -20.5t-97.5 -53.5l-69 84q59 49 130.5 75t149.5 26q135 0 214 -57.5t79 -160.5q0 -51 -30.5 -100t-92.5 -78 q78 -29 111 -81t33 -101q0 -61 -26 -108.5t-71 -79t-106.5 -48t-132.5 -16.5q-92 0 -170 32t-138 83zM432 -43l840 1425h131l-842 -1425h-129zM901 176v98l483 531h125v-520h117v-109h-117v-176h-123v176h-485zM1069 285h317v348q-80 -88 -159.5 -174t-157.5 -174z" />
<glyph unicode="&#xbf;" horiz-adv-x="999" d="M70 -23q0 78 37.5 148t80.5 113q41 41 79 77.5t68 76.5t49 88t24 110h147q-4 -57 -16.5 -103.5t-34 -86.5t-52 -76.5t-67.5 -77.5q-23 -25 -50.5 -54.5t-52 -63.5t-42 -69.5t-17.5 -72.5q0 -31 12.5 -70t43 -72.5t82 -56.5t131.5 -23q76 0 126 28t78.5 66t43 80t20.5 70 h151q-10 -92 -48 -162.5t-96 -120t-133 -75t-157 -25.5q-90 0 -164.5 28t-128 75t-84 111t-30.5 138zM383 889q0 43 29.5 72.5t72.5 29.5t73 -28.5t30 -71.5q0 -51 -33 -78t-72 -27q-43 0 -71.5 30t-28.5 73z" />
<glyph unicode="&#xc0;" horiz-adv-x="1271" d="M35 0q133 336 262 666.5t262 666.5h168q131 -336 261 -666.5t263 -666.5h-164q-31 78 -61.5 157t-58.5 158h-650q-29 -80 -60.5 -158.5t-59.5 -156.5h-162zM291 1561l127 114l274 -192l-51 -66zM369 455h544q-68 178 -136 353t-134 355h-6q-29 -78 -61.5 -165t-59.5 -156 q-12 -35 -32.5 -86t-42 -107.5t-41 -109t-31.5 -84.5z" />
<glyph unicode="&#xc1;" horiz-adv-x="1271" d="M35 0q133 336 262 666.5t262 666.5h168q131 -336 261 -666.5t263 -666.5h-164q-31 78 -61.5 157t-58.5 158h-650q-29 -80 -60.5 -158.5t-59.5 -156.5h-162zM369 455h544q-68 178 -136 353t-134 355h-6q-29 -78 -61.5 -165t-59.5 -156q-12 -35 -32.5 -86t-42 -107.5 t-41 -109t-31.5 -84.5zM580 1483l274 192l127 -114l-350 -144z" />
<glyph unicode="&#xc2;" horiz-adv-x="1271" d="M35 0q133 336 262 666.5t262 666.5h168q131 -336 261 -666.5t263 -666.5h-164q-31 78 -61.5 157t-58.5 158h-650q-29 -80 -60.5 -158.5t-59.5 -156.5h-162zM319 1458l256 228h140l254 -230l-58 -47l-270 158l-262 -156zM369 455h544q-68 178 -136 353t-134 355h-6 q-29 -78 -61.5 -165t-59.5 -156q-12 -35 -32.5 -86t-42 -107.5t-41 -109t-31.5 -84.5z" />
<glyph unicode="&#xc3;" horiz-adv-x="1271" d="M35 0q133 336 262 666.5t262 666.5h168q131 -336 261 -666.5t263 -666.5h-164q-31 78 -61.5 157t-58.5 158h-650q-29 -80 -60.5 -158.5t-59.5 -156.5h-162zM307 1485q37 94 93.5 129t109.5 35q35 0 69.5 -13.5t70.5 -30t70 -29.5t64 -13q37 0 66 15t61 60l68 -34 q-35 -84 -87 -119t-112 -35q-35 0 -70.5 12.5t-70.5 27.5t-67.5 28.5t-63.5 13.5q-35 0 -66.5 -16.5t-66.5 -63.5zM369 455h544q-68 178 -136 353t-134 355h-6q-29 -78 -61.5 -165t-59.5 -156q-12 -35 -32.5 -86t-42 -107.5t-41 -109t-31.5 -84.5z" />
<glyph unicode="&#xc4;" horiz-adv-x="1271" d="M35 0q133 336 262 666.5t262 666.5h168q131 -336 261 -666.5t263 -666.5h-164q-31 78 -61.5 157t-58.5 158h-650q-29 -80 -60.5 -158.5t-59.5 -156.5h-162zM352 1548q0 39 28 64.5t64 25.5q35 0 63 -25.5t28 -64.5q0 -37 -28 -63.5t-63 -26.5q-37 0 -64.5 26.5 t-27.5 63.5zM369 455h544q-68 178 -136 353t-134 355h-6q-29 -78 -61.5 -165t-59.5 -156q-12 -35 -32.5 -86t-42 -107.5t-41 -109t-31.5 -84.5zM748 1548q0 39 26.5 64.5t65.5 25.5q35 0 61.5 -25.5t26.5 -64.5q0 -37 -27 -63.5t-61 -26.5q-37 0 -64.5 26.5t-27.5 63.5z" />
<glyph unicode="&#xc5;" horiz-adv-x="1271" d="M35 0q133 336 262 666.5t262 666.5h168q131 -336 261 -666.5t263 -666.5h-164q-31 78 -61.5 157t-58.5 158h-650q-29 -80 -60.5 -158.5t-59.5 -156.5h-162zM369 455h544q-68 178 -136 353t-134 355h-6q-29 -78 -61.5 -165t-59.5 -156q-12 -35 -32.5 -86t-42 -107.5 t-41 -109t-31.5 -84.5zM461 1561q0 78 52 129t130 51t131 -51t53 -129q0 -80 -53 -132.5t-131 -52.5t-130 51.5t-52 133.5zM541 1561q0 -45 29.5 -76t72.5 -31t72.5 31t29.5 76q0 43 -29.5 71.5t-72.5 28.5t-72.5 -29.5t-29.5 -70.5z" />
<glyph unicode="&#xc6;" horiz-adv-x="1832" d="M27 0l813 1333h927v-141h-696v-410h496v-141h-496v-500h723v-141h-876v373h-494l-229 -373h-168zM504 514h414v676z" />
<glyph unicode="&#xc7;" horiz-adv-x="1138" d="M94 668q0 160 41 286.5t116 216t178 137.5t226 48q135 0 238.5 -45t181.5 -137l-108 -109q-68 76 -143.5 110.5t-170.5 34.5q-96 0 -169.5 -40t-125 -112.5t-78 -172t-26.5 -215.5q0 -115 25.5 -215.5t76 -174t126 -115.5t175.5 -42q180 0 316 153l108 -100 q-76 -92 -175 -142t-240 -54q-6 -16 -12.5 -34t-10.5 -36q57 -6 94 -23.5t58.5 -41t30 -50t8.5 -49.5q0 -27 -11.5 -55.5t-36 -53t-64.5 -40t-99 -15.5q-33 0 -74 7.5t-88 27.5l26 74q72 -27 131 -27q47 0 75 20.5t28 57.5q0 43 -32 65.5t-77 22.5q-4 0 -9 -1t-9 -1l-41 43 l37 113q-111 10 -203 62t-156.5 139t-100.5 209t-36 274z" />
<glyph unicode="&#xc8;" horiz-adv-x="1044" d="M135 0v1333h850v-141h-696v-410h495v-141h-495v-500h723v-141h-877zM309 1561l127 114l275 -192l-52 -66z" />
<glyph unicode="&#xc9;" horiz-adv-x="1044" d="M135 0v1333h850v-141h-696v-410h495v-141h-495v-500h723v-141h-877zM461 1483l274 192l127 -114l-350 -144z" />
<glyph unicode="&#xca;" horiz-adv-x="1044" d="M135 0v1333h850v-141h-696v-410h495v-141h-495v-500h723v-141h-877zM248 1458l256 228h139l254 -230l-57 -47l-271 158l-262 -156z" />
<glyph unicode="&#xcb;" horiz-adv-x="1044" d="M135 0v1333h850v-141h-696v-410h495v-141h-495v-500h723v-141h-877zM281 1540q0 39 27.5 64.5t64.5 25.5q35 0 62.5 -25.5t27.5 -64.5q0 -37 -27.5 -63.5t-62.5 -26.5q-37 0 -64.5 26.5t-27.5 63.5zM676 1540q0 39 26.5 64.5t65.5 25.5q35 0 61.5 -25.5t26.5 -64.5 q0 -37 -26.5 -63.5t-61.5 -26.5q-37 0 -64.5 26.5t-27.5 63.5z" />
<glyph unicode="&#xcc;" horiz-adv-x="497" d="M-78 1561l127 114l275 -192l-52 -66zM170 0v1333h158v-1333h-158z" />
<glyph unicode="&#xcd;" horiz-adv-x="497" d="M170 0v1333h158v-1333h-158zM197 1483l274 192l127 -114l-350 -144z" />
<glyph unicode="&#xce;" horiz-adv-x="497" d="M-74 1458l256 228h140l253 -230l-57 -47l-270 158l-262 -156zM170 0v1333h158v-1333h-158z" />
<glyph unicode="&#xcf;" horiz-adv-x="497" d="M-33 1540q0 39 28 64.5t64 25.5q35 0 63 -25.5t28 -64.5q0 -37 -28 -63.5t-63 -26.5q-37 0 -64.5 26.5t-27.5 63.5zM170 0v1333h158v-1333h-158zM362 1540q0 39 27 64.5t66 25.5q35 0 61.5 -25.5t26.5 -64.5q0 -37 -27 -63.5t-61 -26.5q-37 0 -65 26.5t-28 63.5z" />
<glyph unicode="&#xd0;" horiz-adv-x="1253" d="M14 621v98h136v614h337q135 0 255 -36.5t211 -116.5t143.5 -206t52.5 -306t-53.5 -307.5t-145.5 -207t-213 -116.5t-256 -37h-331v621h-136zM303 141h182q129 0 223.5 38t157 106.5t93 166t30.5 214.5t-30.5 214t-93 165.5t-157 107.5t-221.5 39h-184v-473h266v-98h-266 v-480z" />
<glyph unicode="&#xd1;" horiz-adv-x="1249" d="M131 0v1333h152q119 -182 236.5 -360t236.5 -359q25 -37 52.5 -79.5t55 -88t53 -87.5t48.5 -74h4v1048h153v-1333h-143q-49 74 -117.5 179.5t-147.5 225t-160 243.5t-153 235q-35 53 -66.5 104t-45.5 76h-4v-1063h-154zM299 1483q37 94 93.5 129t109.5 35 q35 0 69.5 -13.5t70.5 -30t69.5 -29.5t64.5 -13q37 0 65.5 15t61.5 60l68 -34q-35 -84 -87.5 -119t-111.5 -35q-35 0 -70.5 12.5t-70.5 27.5t-68 28.5t-63 13.5q-35 0 -67 -16.5t-66 -63.5z" />
<glyph unicode="&#xd2;" horiz-adv-x="1300" d="M94 666q0 147 38 273t108.5 218t174 144.5t234.5 52.5q127 0 229.5 -49.5t175 -140.5t112.5 -216.5t40 -279.5q0 -156 -40 -283t-112.5 -217t-175 -139t-229.5 -49q-133 0 -235.5 51t-174 142t-108.5 217t-37 276zM252 668q0 -113 24.5 -212.5t74.5 -174t125 -117.5 t173 -43q100 0 175 44t124 117.5t74 173t25 210.5q0 117 -25 217t-75 173.5t-124.5 114.5t-173.5 41q-98 0 -173 -41t-124 -113.5t-74.5 -172t-25.5 -217.5zM358 1561l127 114l275 -192l-51 -66z" />
<glyph unicode="&#xd3;" horiz-adv-x="1300" d="M94 666q0 147 38 273t108.5 218t174 144.5t234.5 52.5q127 0 229.5 -49.5t175 -140.5t112.5 -216.5t40 -279.5q0 -156 -40 -283t-112.5 -217t-175 -139t-229.5 -49q-133 0 -235.5 51t-174 142t-108.5 217t-37 276zM252 668q0 -113 24.5 -212.5t74.5 -174t125 -117.5 t173 -43q100 0 175 44t124 117.5t74 173t25 210.5q0 117 -25 217t-75 173.5t-124.5 114.5t-173.5 41q-98 0 -173 -41t-124 -113.5t-74.5 -172t-25.5 -217.5zM532 1483l275 192l127 -114l-350 -144z" />
<glyph unicode="&#xd4;" horiz-adv-x="1300" d="M94 666q0 147 38 273t108.5 218t174 144.5t234.5 52.5q127 0 229.5 -49.5t175 -140.5t112.5 -216.5t40 -279.5q0 -156 -40 -283t-112.5 -217t-175 -139t-229.5 -49q-133 0 -235.5 51t-174 142t-108.5 217t-37 276zM252 668q0 -113 24.5 -212.5t74.5 -174t125 -117.5 t173 -43q100 0 175 44t124 117.5t74 173t25 210.5q0 117 -25 217t-75 173.5t-124.5 114.5t-173.5 41q-98 0 -173 -41t-124 -113.5t-74.5 -172t-25.5 -217.5zM334 1458l256 228h139l254 -230l-57 -47l-271 158l-262 -156z" />
<glyph unicode="&#xd5;" horiz-adv-x="1300" d="M94 666q0 147 38 273t108.5 218t174 144.5t234.5 52.5q127 0 229.5 -49.5t175 -140.5t112.5 -216.5t40 -279.5q0 -156 -40 -283t-112.5 -217t-175 -139t-229.5 -49q-133 0 -235.5 51t-174 142t-108.5 217t-37 276zM252 668q0 -113 24.5 -212.5t74.5 -174t125 -117.5 t173 -43q100 0 175 44t124 117.5t74 173t25 210.5q0 117 -25 217t-75 173.5t-124.5 114.5t-173.5 41q-98 0 -173 -41t-124 -113.5t-74.5 -172t-25.5 -217.5zM319 1489q37 94 93.5 129t109.5 35q35 0 70 -13.5t70.5 -30t69.5 -29.5t65 -13q37 0 65.5 15t61.5 60l67 -34 q-35 -84 -87 -119t-111 -35q-35 0 -71 12.5t-71 27.5t-67.5 28.5t-63.5 13.5q-35 0 -66.5 -16.5t-66.5 -63.5z" />
<glyph unicode="&#xd6;" horiz-adv-x="1300" d="M94 666q0 147 38 273t108.5 218t174 144.5t234.5 52.5q127 0 229.5 -49.5t175 -140.5t112.5 -216.5t40 -279.5q0 -156 -40 -283t-112.5 -217t-175 -139t-229.5 -49q-133 0 -235.5 51t-174 142t-108.5 217t-37 276zM252 668q0 -113 24.5 -212.5t74.5 -174t125 -117.5 t173 -43q100 0 175 44t124 117.5t74 173t25 210.5q0 117 -25 217t-75 173.5t-124.5 114.5t-173.5 41q-98 0 -173 -41t-124 -113.5t-74.5 -172t-25.5 -217.5zM362 1540q0 39 28 64.5t65 25.5q35 0 62.5 -25.5t27.5 -64.5q0 -37 -28 -63.5t-62 -26.5q-37 0 -65 26.5t-28 63.5z M758 1540q0 39 26.5 64.5t65.5 25.5q35 0 61.5 -25.5t26.5 -64.5q0 -37 -26.5 -63.5t-61.5 -26.5q-37 0 -64.5 26.5t-27.5 63.5z" />
<glyph unicode="&#xd7;" d="M240 354l290 289l-290 293q23 23 48 47.5t48 46.5l291 -289l293 291l92 -90l-295 -293l287 -287l-93 -96l-286 285l-291 -291z" />
<glyph unicode="&#xd8;" horiz-adv-x="1300" d="M94 666q0 147 38 273t108.5 218t174 144.5t234.5 52.5q111 0 201 -37t160 -107l127 164l71 -59l-135 -176q63 -90 98 -209t35 -262q0 -156 -40 -283t-112.5 -217t-175 -139t-229.5 -49q-115 0 -205 36.5t-159 106.5l-119 -154l-70 56l129 168q-66 92 -98.5 211.5 t-32.5 261.5zM252 668q0 -98 18.5 -185.5t55.5 -158.5l594 768q-49 57 -117 88.5t-154 31.5q-98 0 -173 -41t-124 -113.5t-74.5 -171.5t-25.5 -218zM379 244q49 -59 116.5 -91t153.5 -32q100 0 175 44t124 117.5t74 173t25 210.5q0 205 -74 346z" />
<glyph unicode="&#xd9;" horiz-adv-x="1261" d="M135 555v778h154v-772q0 -201 86 -318.5t260 -117.5q180 0 264 113.5t84 310.5v784h156v-780q0 -291 -133.5 -432t-374.5 -141q-238 0 -367 144t-129 431zM352 1561l127 114l275 -192l-52 -66z" />
<glyph unicode="&#xda;" horiz-adv-x="1261" d="M135 555v778h154v-772q0 -201 86 -318.5t260 -117.5q180 0 264 113.5t84 310.5v784h156v-780q0 -291 -133.5 -432t-374.5 -141q-238 0 -367 144t-129 431zM526 1483l275 192l127 -114l-350 -144z" />
<glyph unicode="&#xdb;" horiz-adv-x="1261" d="M135 555v778h154v-772q0 -201 86 -318.5t260 -117.5q180 0 264 113.5t84 310.5v784h156v-780q0 -291 -133.5 -432t-374.5 -141q-238 0 -367 144t-129 431zM315 1458l256 228h140l254 -230l-58 -47l-270 158l-262 -156z" />
<glyph unicode="&#xdc;" horiz-adv-x="1261" d="M135 555v778h154v-772q0 -201 86 -318.5t260 -117.5q180 0 264 113.5t84 310.5v784h156v-780q0 -291 -133.5 -432t-374.5 -141q-238 0 -367 144t-129 431zM358 1544q0 39 28 64.5t65 25.5q35 0 62.5 -25.5t27.5 -64.5q0 -37 -28 -63.5t-62 -26.5q-37 0 -65 26.5t-28 63.5 zM754 1544q0 39 26.5 64.5t65.5 25.5q35 0 61.5 -25.5t26.5 -64.5q0 -37 -26.5 -63.5t-61.5 -26.5q-37 0 -64.5 26.5t-27.5 63.5z" />
<glyph unicode="&#xdd;" horiz-adv-x="1146" d="M16 1333h177l380 -719l383 719h172l-479 -860v-473h-153v473zM496 1483l274 192l127 -114l-350 -144z" />
<glyph unicode="&#xde;" horiz-adv-x="1140" d="M133 0v1333h154v-252h391q94 0 172 -24.5t134 -75.5t88 -127t32 -178q0 -104 -32 -181t-90 -128.5t-139 -77t-179 -25.5h-377v-264h-154zM287 406h385q131 0 202.5 68.5t71.5 197.5q0 131 -74.5 200.5t-197.5 69.5h-387v-536z" />
<glyph unicode="&#xdf;" horiz-adv-x="1028" d="M137 -63v1081q0 86 25.5 157.5t73 124t115 82t151.5 29.5q82 0 146.5 -28.5t110.5 -77t70.5 -109.5t24.5 -127q0 -82 -45 -157.5t-135 -116.5v-9q55 -12 104 -44.5t86 -83t58.5 -114t21.5 -136.5q0 -88 -25.5 -166t-74.5 -136.5t-120 -93.5t-159 -35q-23 0 -55.5 4.5 t-54.5 12.5q8 29 14 57.5t12 57.5q39 -6 74 -7q59 0 104.5 27t76 70t47 95t16.5 105q0 74 -22.5 132.5t-60.5 100.5t-88 65.5t-106 27.5v115q33 2 68 18t62.5 46t46 70t18.5 89q0 39 -14.5 79t-42 72.5t-67.5 52t-93 19.5t-94 -21.5t-69 -57.5t-42 -84t-14 -99v-1024 q-37 -16 -73 -31.5t-71 -31.5z" />
<glyph unicode="&#xe0;" horiz-adv-x="976" d="M72 297q0 74 27.5 133t77.5 101t119 64.5t150 22.5q66 0 132.5 -13t140.5 -54v123q0 115 -58.5 167t-175.5 52q-74 0 -137 -18.5t-127 -49.5l-49 115q72 35 152 56.5t178 21.5q174 0 267 -81t93 -243v-694h-143v98h-4q-80 -72 -159 -94t-150 -22q-59 0 -119 17t-108 55 t-77.5 97.5t-29.5 145.5zM215 301q0 -98 57.5 -149.5t165.5 -51.5q80 4 153 43t128 95v190q-61 35 -122.5 55.5t-147.5 20.5q-98 0 -166 -52.5t-68 -150.5zM287 1460l170 31l147 -326l-78 -26z" />
<glyph unicode="&#xe1;" horiz-adv-x="976" d="M72 297q0 74 27.5 133t77.5 101t119 64.5t150 22.5q66 0 132.5 -13t140.5 -54v123q0 115 -58.5 167t-175.5 52q-74 0 -137 -18.5t-127 -49.5l-49 115q72 35 152 56.5t178 21.5q174 0 267 -81t93 -243v-694h-143v98h-4q-80 -72 -159 -94t-150 -22q-59 0 -119 17t-108 55 t-77.5 97.5t-29.5 145.5zM215 301q0 -98 57.5 -149.5t165.5 -51.5q80 4 153 43t128 95v190q-61 35 -122.5 55.5t-147.5 20.5q-98 0 -166 -52.5t-68 -150.5zM463 1165l143 330l168 -31l-233 -325z" />
<glyph unicode="&#xe2;" horiz-adv-x="976" d="M72 297q0 74 27.5 133t77.5 101t119 64.5t150 22.5q66 0 132.5 -13t140.5 -54v123q0 115 -58.5 167t-175.5 52q-74 0 -137 -18.5t-127 -49.5l-49 115q72 35 152 56.5t178 21.5q174 0 267 -81t93 -243v-694h-143v98h-4q-80 -72 -159 -94t-150 -22q-59 0 -119 17t-108 55 t-77.5 97.5t-29.5 145.5zM190 1192l256 256h140l254 -258l-58 -47l-270 186l-264 -184zM215 301q0 -98 57.5 -149.5t165.5 -51.5q80 4 153 43t128 95v190q-61 35 -122.5 55.5t-147.5 20.5q-98 0 -166 -52.5t-68 -150.5z" />
<glyph unicode="&#xe3;" horiz-adv-x="976" d="M72 297q0 74 27.5 133t77.5 101t119 64.5t150 22.5q66 0 132.5 -13t140.5 -54v123q0 115 -58.5 167t-175.5 52q-74 0 -137 -18.5t-127 -49.5l-49 115q72 35 152 56.5t178 21.5q174 0 267 -81t93 -243v-694h-143v98h-4q-80 -72 -159 -94t-150 -22q-59 0 -119 17t-108 55 t-77.5 97.5t-29.5 145.5zM197 1217q37 94 93 128.5t109 34.5q35 0 70 -13t70.5 -29.5t69.5 -30t65 -13.5q37 0 65.5 15.5t61.5 60.5l67 -35q-35 -84 -87 -118.5t-111 -34.5q-35 0 -71 12t-70.5 27.5t-67.5 29t-64 13.5q-35 0 -66.5 -16.5t-66.5 -63.5zM215 301 q0 -98 57.5 -149.5t165.5 -51.5q80 4 153 43t128 95v190q-61 35 -122.5 55.5t-147.5 20.5q-98 0 -166 -52.5t-68 -150.5z" />
<glyph unicode="&#xe4;" horiz-adv-x="976" d="M72 297q0 74 27.5 133t77.5 101t119 64.5t150 22.5q66 0 132.5 -13t140.5 -54v123q0 115 -58.5 167t-175.5 52q-74 0 -137 -18.5t-127 -49.5l-49 115q72 35 152 56.5t178 21.5q174 0 267 -81t93 -243v-694h-143v98h-4q-80 -72 -159 -94t-150 -22q-59 0 -119 17t-108 55 t-77.5 97.5t-29.5 145.5zM215 301q0 -98 57.5 -149.5t165.5 -51.5q80 4 153 43t128 95v190q-61 35 -122.5 55.5t-147.5 20.5q-98 0 -166 -52.5t-68 -150.5zM229 1284q0 39 28 64.5t65 25.5q35 0 62.5 -25.5t27.5 -64.5q0 -37 -28 -63.5t-62 -26.5q-37 0 -65 26.5t-28 63.5z M625 1284q0 39 26.5 64.5t65.5 25.5q35 0 61.5 -25.5t26.5 -64.5q0 -37 -26.5 -63.5t-61.5 -26.5q-37 0 -64.5 26.5t-27.5 63.5z" />
<glyph unicode="&#xe5;" horiz-adv-x="976" d="M72 297q0 74 27.5 133t77.5 101t119 64.5t150 22.5q66 0 132.5 -13t140.5 -54v123q0 115 -58.5 167t-175.5 52q-74 0 -137 -18.5t-127 -49.5l-49 115q72 35 152 56.5t178 21.5q174 0 267 -81t93 -243v-694h-143v98h-4q-80 -72 -159 -94t-150 -22q-59 0 -119 17t-108 55 t-77.5 97.5t-29.5 145.5zM215 301q0 -98 57.5 -149.5t165.5 -51.5q80 4 153 43t128 95v190q-61 35 -122.5 55.5t-147.5 20.5q-98 0 -166 -52.5t-68 -150.5zM342 1300q0 78 52 129.5t130 51.5t131.5 -51.5t53.5 -129.5q0 -80 -53.5 -132t-131.5 -52t-130 51.5t-52 132.5z M422 1300q0 -45 29.5 -75.5t72.5 -30.5t73 30.5t30 75.5q0 43 -30 72t-73 29t-72.5 -30t-29.5 -71z" />
<glyph unicode="&#xe6;" horiz-adv-x="1648" d="M88 299q0 72 27.5 131t78 101t119 64.5t150.5 22.5q70 0 135.5 -16t138.5 -51q0 23 1 51.5t3 61.5q4 109 -59.5 170t-179.5 61q-74 0 -134.5 -17.5t-123.5 -50.5l-51 117q72 35 149.5 55.5t175.5 20.5q125 0 206 -49t116 -135q53 86 136 133t181 47t176 -37t130.5 -103.5 t80 -157.5t27.5 -200v-74h-690q8 -174 91 -256t195 -82q66 0 128.5 27t107.5 70l88 -92q-80 -72 -158 -101.5t-178 -29.5t-185 45t-145 137q-72 -61 -128 -97t-103 -54.5t-89 -23.5t-83 -5q-59 0 -118.5 17t-108 55t-78 98.5t-29.5 146.5zM223 303q0 -98 61.5 -153.5 t170.5 -55.5q84 0 170 48t147 124q-12 35 -21.5 79t-11.5 91q-59 29 -125.5 49.5t-146.5 20.5q-49 0 -94 -13.5t-78 -40t-52.5 -63.5t-19.5 -86zM881 559h544q0 68 -15 127t-49 104.5t-86 72t-124 26.5q-53 0 -100 -22.5t-84 -65.5t-59.5 -104.5t-26.5 -137.5z" />
<glyph unicode="&#xe7;" horiz-adv-x="897" d="M94 500q0 125 32 221t89 162.5t133 100.5t166 34q201 0 328 -141l-97 -97q-55 59 -112.5 84t-122.5 25q-63 0 -113.5 -30t-85.5 -82t-53 -122.5t-18 -154.5t17 -155t53 -123t87.5 -81.5t118.5 -29.5q68 0 122 25.5t110 82.5l96 -88q-59 -66 -133 -106.5t-183 -44.5 q-6 -16 -12 -34t-10 -36q57 -6 94 -23.5t58.5 -41t29.5 -50t8 -49.5q0 -27 -11 -55.5t-35.5 -53t-65 -40t-99.5 -15.5q-33 0 -73.5 7.5t-87.5 27.5l26 74q72 -27 131 -27q47 0 75 20.5t28 57.5q0 43 -32 65.5t-77 22.5q-4 0 -9 -1t-9 -1l-41 43l37 113q-78 10 -143.5 47 t-112.5 100.5t-75 155.5t-28 213z" />
<glyph unicode="&#xe8;" horiz-adv-x="1001" d="M92 498q0 121 33 217t89 163.5t133 103.5t167 36q100 0 177 -36t129 -102.5t80 -159.5t28 -208v-68h-690q10 -166 92 -252t198 -86q66 0 127.5 27t108.5 70l86 -92q-137 -131 -336 -131q-84 0 -161 32.5t-135 98t-92 163t-34 224.5zM238 561h546q0 68 -16 128.5 t-50 104.5t-85 70.5t-123 26.5q-53 0 -100.5 -23.5t-84 -67.5t-60 -104.5t-27.5 -134.5zM285 1460l170 31l147 -326l-78 -26z" />
<glyph unicode="&#xe9;" horiz-adv-x="1001" d="M92 498q0 121 33 217t89 163.5t133 103.5t167 36q100 0 177 -36t129 -102.5t80 -159.5t28 -208v-68h-690q10 -166 92 -252t198 -86q66 0 127.5 27t108.5 70l86 -92q-137 -131 -336 -131q-84 0 -161 32.5t-135 98t-92 163t-34 224.5zM238 561h546q0 68 -16 128.5 t-50 104.5t-85 70.5t-123 26.5q-53 0 -100.5 -23.5t-84 -67.5t-60 -104.5t-27.5 -134.5zM453 1165l143 330l168 -31l-234 -325z" />
<glyph unicode="&#xea;" horiz-adv-x="1001" d="M92 498q0 121 33 217t89 163.5t133 103.5t167 36q100 0 177 -36t129 -102.5t80 -159.5t28 -208v-68h-690q10 -166 92 -252t198 -86q66 0 127.5 27t108.5 70l86 -92q-137 -131 -336 -131q-84 0 -161 32.5t-135 98t-92 163t-34 224.5zM201 1192l256 256h139l254 -258 l-57 -47l-271 186l-264 -184zM238 561h546q0 68 -16 128.5t-50 104.5t-85 70.5t-123 26.5q-53 0 -100.5 -23.5t-84 -67.5t-60 -104.5t-27.5 -134.5z" />
<glyph unicode="&#xeb;" horiz-adv-x="1001" d="M92 498q0 121 33 217t89 163.5t133 103.5t167 36q100 0 177 -36t129 -102.5t80 -159.5t28 -208v-68h-690q10 -166 92 -252t198 -86q66 0 127.5 27t108.5 70l86 -92q-137 -131 -336 -131q-84 0 -161 32.5t-135 98t-92 163t-34 224.5zM233 1272q0 39 28 64.5t65 25.5 q35 0 62.5 -25.5t27.5 -64.5q0 -37 -28 -63.5t-62 -26.5q-37 0 -65 26.5t-28 63.5zM238 561h546q0 68 -16 128.5t-50 104.5t-85 70.5t-123 26.5q-53 0 -100.5 -23.5t-84 -67.5t-60 -104.5t-27.5 -134.5zM629 1272q0 39 26.5 64.5t65.5 25.5q35 0 61.5 -25.5t26.5 -64.5 q0 -37 -26.5 -63.5t-61.5 -26.5q-37 0 -64.5 26.5t-27.5 63.5z" />
<glyph unicode="&#xec;" horiz-adv-x="468" d="M-4 1460l170 31l147 -326l-77 -26zM164 0v997h147v-997h-147z" />
<glyph unicode="&#xed;" horiz-adv-x="468" d="M164 0v997h147v-997h-147zM190 1165l144 330l168 -31l-234 -325z" />
<glyph unicode="&#xee;" horiz-adv-x="608" d="M-20 1182l256 256h139l254 -258l-58 -47l-270 186l-264 -184zM231 0v997h148v-997h-148z" />
<glyph unicode="&#xef;" horiz-adv-x="534" d="M-20 1284q0 39 27.5 64.5t64.5 25.5q35 0 62.5 -25.5t27.5 -64.5q0 -37 -28 -63.5t-62 -26.5q-37 0 -64.5 26.5t-27.5 63.5zM193 0v997h147v-997h-147zM375 1284q0 39 26.5 64.5t65.5 25.5q35 0 61.5 -25.5t26.5 -64.5q0 -37 -26.5 -63.5t-61.5 -26.5q-37 0 -64.5 26.5 t-27.5 63.5z" />
<glyph unicode="&#xf0;" horiz-adv-x="1052" d="M98 483q0 119 34 210t91.5 153.5t134 94.5t162.5 32q82 0 172 -45t142 -135h8q-4 111 -38 205t-97 165l-109 -127l-68 58l113 129q-111 86 -274 104l22 121q106 -10 187 -41t153 -84l117 131l65 -53l-118 -137q88 -96 137 -236.5t49 -357.5q0 -143 -24.5 -269.5 t-80 -219.5t-143.5 -147t-213 -54q-94 0 -172 35.5t-133 101t-86 159t-31 207.5zM238 487q0 -88 21.5 -158.5t59 -119.5t90 -76t113.5 -27q66 0 119 31t91 83t58.5 121.5t20.5 147.5q0 164 -79 261.5t-214 97.5q-66 0 -118 -26.5t-88 -75t-55 -115t-19 -144.5z" />
<glyph unicode="&#xf1;" horiz-adv-x="997" d="M113 0v999h145v-141l4 -2q55 86 137 124t158 38q174 0 257 -101.5t83 -293.5v-623h-147v600q0 141 -55.5 216t-180.5 75q-92 0 -157.5 -60.5t-88.5 -146.5q-10 -41 -10 -88v-596h-145zM156 1217q37 94 93 128.5t109 34.5q35 0 70 -13t71 -29.5t69.5 -30t64.5 -13.5 q37 0 65.5 15.5t61.5 60.5l67 -35q-35 -84 -87 -118.5t-111 -34.5q-35 0 -71 12t-70.5 27.5t-67.5 29t-64 13.5q-35 0 -66.5 -16.5t-66.5 -63.5z" />
<glyph unicode="&#xf2;" horiz-adv-x="1050" d="M92 500q0 125 33 222t91 162.5t137 99.5t171 34t172 -35t138.5 -101.5t91 -161.5t32.5 -216q0 -125 -33.5 -222.5t-92 -165t-138.5 -102t-174 -34.5q-96 0 -175 35.5t-135 103t-87 164t-31 217.5zM240 504q0 -180 76.5 -287.5t211.5 -107.5q72 0 125.5 31.5t89 85t53 124 t17.5 150.5q0 84 -18.5 155.5t-55.5 123.5t-92 82t-127 30q-68 0 -121 -31t-88 -83t-53 -122.5t-18 -150.5zM254 1460l170 31l147 -326l-77 -26z" />
<glyph unicode="&#xf3;" horiz-adv-x="1050" d="M92 500q0 125 33 222t91 162.5t137 99.5t171 34t172 -35t138.5 -101.5t91 -161.5t32.5 -216q0 -125 -33.5 -222.5t-92 -165t-138.5 -102t-174 -34.5q-96 0 -175 35.5t-135 103t-87 164t-31 217.5zM240 504q0 -180 76.5 -287.5t211.5 -107.5q72 0 125.5 31.5t89 85t53 124 t17.5 150.5q0 84 -18.5 155.5t-55.5 123.5t-92 82t-127 30q-68 0 -121 -31t-88 -83t-53 -122.5t-18 -150.5zM477 1165l144 330l167 -31l-233 -325z" />
<glyph unicode="&#xf4;" horiz-adv-x="1050" d="M92 500q0 125 33 222t91 162.5t137 99.5t171 34t172 -35t138.5 -101.5t91 -161.5t32.5 -216q0 -125 -33.5 -222.5t-92 -165t-138.5 -102t-174 -34.5q-96 0 -175 35.5t-135 103t-87 164t-31 217.5zM207 1182l256 256h139l254 -258l-57 -47l-271 186l-264 -184zM240 504 q0 -180 76.5 -287.5t211.5 -107.5q72 0 125.5 31.5t89 85t53 124t17.5 150.5q0 84 -18.5 155.5t-55.5 123.5t-92 82t-127 30q-68 0 -121 -31t-88 -83t-53 -122.5t-18 -150.5z" />
<glyph unicode="&#xf5;" horiz-adv-x="1050" d="M92 500q0 125 33 222t91 162.5t137 99.5t171 34t172 -35t138.5 -101.5t91 -161.5t32.5 -216q0 -125 -33.5 -222.5t-92 -165t-138.5 -102t-174 -34.5q-96 0 -175 35.5t-135 103t-87 164t-31 217.5zM205 1217q37 94 93 128.5t110 34.5q35 0 69.5 -13t70.5 -29.5t69.5 -30 t64.5 -13.5q37 0 65.5 15.5t61.5 60.5l68 -35q-35 -84 -87.5 -118.5t-111.5 -34.5q-35 0 -71 12t-70.5 27.5t-67.5 29t-63 13.5q-35 0 -67 -16.5t-67 -63.5zM240 504q0 -180 76.5 -287.5t211.5 -107.5q72 0 125.5 31.5t89 85t53 124t17.5 150.5q0 84 -18.5 155.5 t-55.5 123.5t-92 82t-127 30q-68 0 -121 -31t-88 -83t-53 -122.5t-18 -150.5z" />
<glyph unicode="&#xf6;" horiz-adv-x="1050" d="M92 500q0 125 33 222t91 162.5t137 99.5t171 34t172 -35t138.5 -101.5t91 -161.5t32.5 -216q0 -125 -33.5 -222.5t-92 -165t-138.5 -102t-174 -34.5q-96 0 -175 35.5t-135 103t-87 164t-31 217.5zM240 504q0 -180 76.5 -287.5t211.5 -107.5q72 0 125.5 31.5t89 85t53 124 t17.5 150.5q0 84 -18.5 155.5t-55.5 123.5t-92 82t-127 30q-68 0 -121 -31t-88 -83t-53 -122.5t-18 -150.5zM246 1284q0 39 27.5 64.5t64.5 25.5q35 0 62.5 -25.5t27.5 -64.5q0 -37 -27.5 -63.5t-62.5 -26.5q-37 0 -64.5 26.5t-27.5 63.5zM641 1284q0 39 26.5 64.5 t65.5 25.5q35 0 61.5 -25.5t26.5 -64.5q0 -37 -26.5 -63.5t-61.5 -26.5q-37 0 -64.5 26.5t-27.5 63.5z" />
<glyph unicode="&#xf7;" d="M211 571v131h827v-131h-827zM524 293q0 45 29 74.5t70 29.5t70.5 -29.5t29.5 -74.5q0 -41 -29.5 -70.5t-70.5 -29.5t-70 28.5t-29 71.5zM524 967q0 45 29 73.5t70 28.5t70.5 -28.5t29.5 -73.5q0 -41 -29.5 -72t-70.5 -31t-70 30t-29 73z" />
<glyph unicode="&#xf8;" horiz-adv-x="1050" d="M92 500q0 125 33 222t91 162.5t137 99.5t171 34q76 0 142.5 -23.5t119.5 -66.5l82 108l72 -53l-90 -121q51 -66 79.5 -155.5t28.5 -202.5q0 -125 -33.5 -222.5t-92 -165t-138.5 -102t-174 -34.5q-162 0 -268 94l-88 -115l-70 47l99 133q-47 66 -74 157t-27 204zM240 504 q0 -141 47 -240l418 555q-35 35 -81 53.5t-104 18.5q-68 0 -121 -31t-88 -83t-53 -122.5t-18 -150.5zM338 188q76 -80 190 -79q72 0 125.5 31.5t89 85t53 124t17.5 150.5q0 143 -53 245z" />
<glyph unicode="&#xf9;" horiz-adv-x="995" d="M106 362v637h146v-602q0 -147 53 -219t178 -72q92 0 154.5 58.5t85.5 144.5q12 43 12 94v596h146v-999h-146v139h-6q-55 -86 -134 -122.5t-153 -36.5q-336 0 -336 382zM268 1460l170 31l148 -326l-78 -26z" />
<glyph unicode="&#xfa;" horiz-adv-x="995" d="M106 362v637h146v-602q0 -147 53 -219t178 -72q92 0 154.5 58.5t85.5 144.5q12 43 12 94v596h146v-999h-146v139h-6q-55 -86 -134 -122.5t-153 -36.5q-336 0 -336 382zM438 1165l144 330l168 -31l-234 -325z" />
<glyph unicode="&#xfb;" horiz-adv-x="995" d="M106 362v637h146v-602q0 -147 53 -219t178 -72q92 0 154.5 58.5t85.5 144.5q12 43 12 94v596h146v-999h-146v139h-6q-55 -86 -134 -122.5t-153 -36.5q-336 0 -336 382zM193 1186l256 256h139l254 -258l-58 -47l-270 186l-264 -184z" />
<glyph unicode="&#xfc;" horiz-adv-x="995" d="M106 362v637h146v-602q0 -147 53 -219t178 -72q92 0 154.5 58.5t85.5 144.5q12 43 12 94v596h146v-999h-146v139h-6q-55 -86 -134 -122.5t-153 -36.5q-336 0 -336 382zM225 1286q0 39 28 64.5t64 25.5q35 0 63 -25.5t28 -64.5q0 -37 -28 -63.5t-63 -26.5 q-37 0 -64.5 26.5t-27.5 63.5zM621 1286q0 39 26.5 64.5t65.5 25.5q35 0 61.5 -25.5t26.5 -64.5q0 -37 -26.5 -63.5t-61.5 -26.5q-37 0 -64.5 26.5t-27.5 63.5z" />
<glyph unicode="&#xfd;" horiz-adv-x="948" d="M31 999h153l185 -528l100 -301h6q27 76 52.5 150.5t50.5 150.5q16 45 41.5 115.5t53 147.5t52.5 148.5t41 116.5h147q-125 -344 -250.5 -692t-250.5 -690h-136l130 369zM424 1165l143 330l168 -31l-233 -325z" />
<glyph unicode="&#xfe;" horiz-adv-x="1021" d="M111 -371v1704h147v-434h4q74 74 147.5 96.5t143.5 22.5t137.5 -30t119.5 -92t85 -158.5t33 -229.5q0 -141 -36 -241.5t-94.5 -164t-130 -92t-145.5 -28.5q-72 0 -136 24.5t-128 87.5h-2v-399q-37 -16 -73 -32.5t-72 -33.5zM256 246q41 -53 107.5 -96.5t142.5 -43.5 q135 0 206.5 105.5t71.5 298.5q0 180 -73.5 282.5t-192.5 102.5q-84 0 -151.5 -43t-110.5 -98v-508z" />
<glyph unicode="&#xff;" horiz-adv-x="948" d="M31 999h153l185 -528l100 -301h6q27 76 52.5 150.5t50.5 150.5q16 45 41.5 115.5t53 147.5t52.5 148.5t41 116.5h147q-125 -344 -250.5 -692t-250.5 -690h-136l130 369zM207 1284q0 39 27.5 64.5t64.5 25.5q35 0 62.5 -25.5t27.5 -64.5q0 -37 -27.5 -63.5t-62.5 -26.5 q-37 0 -64.5 26.5t-27.5 63.5zM602 1284q0 39 26.5 64.5t65.5 25.5q35 0 61.5 -25.5t26.5 -64.5q0 -37 -26.5 -63.5t-61.5 -26.5q-37 0 -64.5 26.5t-27.5 63.5z" />
<glyph unicode="&#x152;" horiz-adv-x="1753" d="M98 666q0 147 37 273t108.5 218t174 144.5t235.5 52.5q39 0 76 -5.5t72 -15.5h848v-141h-697v-410h496v-141h-496v-500h723v-141h-868q-35 -10 -74 -15t-80 -5q-133 0 -235.5 51t-174 142t-108.5 217t-37 276zM254 668q0 -113 24.5 -212.5t74.5 -174t125 -117.5t175 -43 q80 0 146 31v1030q-66 31 -146 30q-98 0 -172.5 -41t-125 -113.5t-76 -172t-25.5 -217.5z" />
<glyph unicode="&#x153;" horiz-adv-x="1724" d="M92 500q0 125 33 222t91 162.5t137 99.5t171 34q121 0 215.5 -58.5t147.5 -168.5q53 109 144 168t204 59q100 0 177 -36t130 -102.5t81 -159.5t28 -208v-68h-693q10 -170 93.5 -254t197.5 -84q66 0 126.5 26t107.5 69l90 -90q-137 -131 -336 -131q-111 0 -205 55 t-147 172q-55 -111 -150.5 -169t-214.5 -58q-92 0 -170 35.5t-135 103t-90 164t-33 217.5zM238 504q0 -180 76.5 -287.5t211.5 -107.5q68 0 121 31.5t89 85t54.5 124t18.5 150.5q0 84 -18.5 155.5t-55.5 123.5t-91 82t-126 30q-68 0 -121 -31t-88 -83t-53 -122.5t-18 -150.5 zM961 561h546q0 68 -16 128.5t-50 106.5t-86 72.5t-124 26.5q-53 0 -100.5 -23.5t-84 -67.5t-59 -105.5t-26.5 -137.5z" />
<glyph unicode="&#x178;" horiz-adv-x="1146" d="M16 1333h177l380 -719l383 719h172l-479 -860v-473h-153v473zM309 1544q0 39 28 64.5t64 25.5q35 0 63 -25.5t28 -64.5q0 -37 -28 -63.5t-63 -26.5q-37 0 -64.5 26.5t-27.5 63.5zM705 1544q0 39 26.5 64.5t65.5 25.5q35 0 61.5 -25.5t26.5 -64.5q0 -37 -27 -63.5 t-61 -26.5q-37 0 -64.5 26.5t-27.5 63.5z" />
<glyph unicode="&#x2c6;" horiz-adv-x="1048" d="M197 1182l256 256h139l254 -258l-58 -47l-270 186l-264 -184z" />
<glyph unicode="&#x2dc;" horiz-adv-x="1021" d="M180 1217q37 94 93.5 128.5t109.5 34.5q35 0 69.5 -13t70.5 -29.5t70 -30t64 -13.5q37 0 66 15.5t61 60.5l68 -35q-35 -84 -87 -118.5t-112 -34.5q-35 0 -70.5 12t-70.5 27.5t-67.5 29t-63.5 13.5q-35 0 -66.5 -16.5t-66.5 -63.5z" />
<glyph unicode="&#x2000;" horiz-adv-x="870" />
<glyph unicode="&#x2001;" horiz-adv-x="1741" />
<glyph unicode="&#x2002;" horiz-adv-x="870" />
<glyph unicode="&#x2003;" horiz-adv-x="1741" />
<glyph unicode="&#x2004;" horiz-adv-x="580" />
<glyph unicode="&#x2005;" horiz-adv-x="435" />
<glyph unicode="&#x2006;" horiz-adv-x="290" />
<glyph unicode="&#x2007;" horiz-adv-x="290" />
<glyph unicode="&#x2008;" horiz-adv-x="217" />
<glyph unicode="&#x2009;" horiz-adv-x="348" />
<glyph unicode="&#x200a;" horiz-adv-x="96" />
<glyph unicode="&#x2010;" horiz-adv-x="688" d="M109 561v150h475v-150h-475z" />
<glyph unicode="&#x2011;" horiz-adv-x="688" d="M109 561v150h475v-150h-475z" />
<glyph unicode="&#x2012;" horiz-adv-x="688" d="M109 561v150h475v-150h-475z" />
<glyph unicode="&#x2013;" horiz-adv-x="1024" d="M63 565v135h898v-135h-898z" />
<glyph unicode="&#x2014;" horiz-adv-x="2048" d="M63 571v136h1922v-136h-1922z" />
<glyph unicode="&#x2018;" horiz-adv-x="471" d="M119 1094q0 88 47 152.5t119 107.5q23 -27 41 -54q-39 -25 -64.5 -62.5t-30.5 -84.5q4 0 5.5 1t5.5 1q41 0 70.5 -25.5t29.5 -72.5q0 -45 -30.5 -77t-73.5 -32q-47 0 -83 39t-36 107z" />
<glyph unicode="&#x2019;" horiz-adv-x="471" d="M119 1247q0 45 30.5 76t73.5 31q47 0 83 -39t36 -105q0 -90 -47 -153.5t-119 -108.5l-41 53q39 27 64.5 65t29.5 85q-45 0 -77.5 21.5t-32.5 74.5z" />
<glyph unicode="&#x201a;" horiz-adv-x="417" d="M86 88q0 47 30.5 78t73.5 31q49 0 84 -39t35 -107q0 -88 -47 -151.5t-119 -106.5l-41 51q39 29 65 66t30 84q-45 0 -78 21.5t-33 72.5z" />
<glyph unicode="&#x201c;" horiz-adv-x="747" d="M113 1094q0 88 47 152.5t119 107.5q23 -27 40 -54q-39 -25 -64.5 -62.5t-29.5 -84.5q4 0 5 1t6 1q41 0 70.5 -25.5t29.5 -72.5q0 -45 -31 -77t-74 -32q-47 0 -82.5 39t-35.5 107zM410 1094q0 88 46.5 152.5t118.5 107.5q23 -27 41 -54q-37 -25 -63.5 -62.5t-30.5 -84.5 q4 0 6 1t4 1q41 0 71 -25.5t30 -72.5q0 -45 -31 -77t-74 -32q-47 0 -82.5 39t-35.5 107z" />
<glyph unicode="&#x201d;" horiz-adv-x="747" d="M113 1247q0 45 31.5 76t72.5 31q47 0 84 -39t37 -105q0 -90 -48 -153.5t-120 -108.5q-18 27 -41 53q39 27 65.5 65t30.5 85q-47 0 -79.5 21.5t-32.5 74.5zM412 1247q0 45 30.5 76t73.5 31q47 0 83 -39t36 -105q0 -90 -47 -153.5t-119 -108.5l-41 53q37 27 63.5 65 t30.5 85q-45 0 -77.5 21.5t-32.5 74.5z" />
<glyph unicode="&#x201e;" horiz-adv-x="765" d="M100 88q0 47 31 78t74 31q47 0 83 -39t36 -107q0 -88 -47.5 -151.5t-118.5 -106.5l-41 51q37 29 63.5 66t30.5 84q-45 0 -78 21.5t-33 72.5zM446 88q0 47 31 78t74 31q47 0 83 -39t36 -107q0 -86 -47.5 -150.5t-118.5 -107.5l-41 51q39 29 64.5 66t29.5 84 q-45 0 -78 21.5t-33 72.5z" />
<glyph unicode="&#x2022;" horiz-adv-x="727" d="M160 629q0 43 16.5 82t44 67.5t66.5 45t82 16.5t80.5 -16.5t65.5 -45t44 -67.5t16 -82t-16 -82t-44 -66.5t-65.5 -44t-80.5 -16.5q-88 0 -148.5 60.5t-60.5 148.5z" />
<glyph unicode="&#x2026;" horiz-adv-x="1435" d="M143 88q0 43 30 74t71 31t71.5 -30t30.5 -75q0 -43 -30.5 -73.5t-71.5 -30.5t-71 30.5t-30 73.5zM625 88q0 43 28.5 74t71.5 31t71.5 -30t28.5 -75q0 -43 -28.5 -73.5t-71.5 -30.5t-71.5 30.5t-28.5 73.5zM1110 88q0 43 30.5 74t71.5 31t71 -30t30 -75q0 -43 -30 -73.5 t-71 -30.5t-71.5 30.5t-30.5 73.5z" />
<glyph unicode="&#x202f;" horiz-adv-x="348" />
<glyph unicode="&#x2039;" horiz-adv-x="884" d="M227 487l281 422h139l-278 -422l278 -419h-139z" />
<glyph unicode="&#x203a;" horiz-adv-x="884" d="M244 82l278 420l-278 422h141l279 -422l-281 -420h-139z" />
<glyph unicode="&#x205f;" horiz-adv-x="435" />
<glyph unicode="&#x20ac;" d="M106 479v117h836v-117h-539q27 -170 124.5 -263t250.5 -93q158 0 283 115l96 -113q-72 -70 -167 -107.5t-218 -37.5q-104 0 -194.5 30.5t-160 92t-115.5 155.5t-64 221h-132zM106 709v116h125q16 127 63.5 225.5t118 166t163 103.5t200.5 36q219 0 365 -129l-99 -121 q-115 102 -268 102q-162 0 -259 -104.5t-122 -278.5h549v-116h-836z" />
<glyph unicode="&#x2122;" horiz-adv-x="1560" d="M63 1233v100h580v-100h-237v-647h-105v647h-238zM723 586v749h125q12 -27 36.5 -83t53.5 -118.5t54.5 -117.5t37.5 -82l47 -115l51 113q12 27 38 83t54.5 118.5t53 119t37.5 82.5h125v-749h-105v567l-74 -170l-180 -399q-12 31 -40.5 94t-61.5 134t-61.5 135.5 t-41.5 92.5l-45 101v-555h-104z" />
<glyph unicode="&#x25fc;" horiz-adv-x="1003" d="M0 0v1004h1004v-1004h-1004z" />
</font>
</defs>
</svg>
