<svg xmlns="http://www.w3.org/2000/svg" viewBox="0.9 0.9 133.1 38.2" enable-background="new 0.9 0.9 133.1 38.2"><path d="m130.2.9c2.1 0 3.8 1.7 3.8 3.8v30.5c0 2.1-1.7 3.8-3.8 3.8h-125.5c-2.1 0-3.8-1.7-3.8-3.8v-30.5c0-2.1 1.7-3.8 3.8-3.8"/><g fill="#fff"><path d="m30.1 19.8c0-3.2 2.6-4.8 2.8-4.9-1.5-2.2-3.9-2.5-4.7-2.5-2-.2-3.9 1.2-4.9 1.2-1 0-2.6-1.2-4.2-1.1-2.1 0-4.1 1.3-5.2 3.2-2.3 3.9-.6 9.7 1.6 12.9 1.1 1.6 2.4 3.3 4 3.2 1.6-.1 2.2-1 4.2-1 1.9 0 2.5 1 4.2 1 1.7 0 2.8-1.6 3.9-3.1 1.3-1.8 1.8-3.5 1.8-3.6-.1-.2-3.4-1.5-3.5-5.3"/><path d="m26.9 10.3c.9-1.1 1.5-2.6 1.3-4.1-1.3.1-2.8.9-3.8 1.9-.8.9-1.5 2.5-1.3 3.9 1.5.2 2.9-.6 3.8-1.7"/><path d="m53.6 31.5h-2.3l-1.2-3.9h-4.3l-1.2 3.9h-2.2l4.3-13.3h2.6l4.3 13.3m-3.8-5.5l-1.1-3.5c-.1-.4-.3-1.2-.7-2.5-.1.6-.3 1.4-.6 2.5l-1.2 3.5h3.6"/><path d="m64.7 26.6c0 1.6-.4 2.9-1.3 3.9-.8.8-1.8 1.3-2.9 1.3-1.3 0-2.2-.5-2.7-1.4v5.1h-2.1v-10.4c0-1 0-2.1-.1-3.2h1.9l.1 1.5c.7-1.1 1.8-1.7 3.2-1.7 1.1 0 2.1.4 2.8 1.3.7.9 1.1 2.1 1.1 3.6m-2.2.1c0-.9-.2-1.7-.6-2.3-.5-.6-1.1-.9-1.9-.9-.5 0-1 .2-1.4.5-.4.4-.7.8-.8 1.4-.1.3-.1.5-.1.6v1.6c0 .7.2 1.3.6 1.8s1 .7 1.7.7c.8 0 1.4-.3 1.9-.9.4-.7.6-1.5.6-2.5"/><path d="m75.7 26.6c0 1.6-.4 2.9-1.3 3.9-.8.8-1.8 1.3-2.9 1.3-1.3 0-2.2-.5-2.7-1.4v5.1h-2.1v-10.4c0-1 0-2.1-.1-3.2h1.9l.1 1.5c.7-1.1 1.8-1.7 3.2-1.7 1.1 0 2.1.4 2.8 1.3.7.9 1.1 2.1 1.1 3.6m-2.2.1c0-.9-.2-1.7-.6-2.3-.5-.6-1.1-.9-1.9-.9-.5 0-1 .2-1.4.5-.4.4-.7.8-.8 1.4-.1.3-.1.5-.1.6v1.6c0 .7.2 1.3.6 1.8.4.5 1 .7 1.7.7.8 0 1.4-.3 1.9-.9.4-.7.6-1.5.6-2.5"/><path d="m88 27.8c0 1.1-.4 2.1-1.2 2.8-.9.8-2.1 1.2-3.6 1.2-1.4 0-2.6-.3-3.4-.8l.5-1.8c.9.6 2 .9 3.1.9.8 0 1.4-.2 1.9-.5.4-.4.7-.8.7-1.5 0-.5-.2-1-.6-1.4-.4-.4-1-.7-1.8-1-2.3-.9-3.5-2.1-3.5-3.8 0-1.1.4-2 1.2-2.7.8-.7 1.9-1 3.3-1 1.2 0 2.2.2 3 .6l-.6 1.6c-.8-.4-1.6-.6-2.5-.6-.8 0-1.3.2-1.8.6-.4.3-.5.7-.5 1.2 0 .5.2 1 .6 1.3.4.3 1 .7 1.9 1 1.1.5 2 1 2.5 1.6.6.6.8 1.4.8 2.3"/><path d="m95.1 23.5h-2.3v4.7c0 1.2.4 1.8 1.2 1.8.4 0 .7 0 .9-.1l.1 1.6c-.4.2-1 .2-1.7.2-.8 0-1.5-.3-2-.8-.5-.5-.7-1.4-.7-2.6v-4.8h-1.4v-1.6h1.4v-1.8l2.1-.6v2.4h2.3c.1 0 .1 1.6.1 1.6"/><path d="m105.7 26.6c0 1.5-.4 2.7-1.3 3.6-.9 1-2.1 1.5-3.5 1.5-1.4 0-2.5-.5-3.4-1.4s-1.3-2.1-1.3-3.5c0-1.5.4-2.7 1.3-3.7.9-.9 2-1.4 3.5-1.4 1.4 0 2.5.5 3.4 1.4.9.9 1.3 2.1 1.3 3.5m-2.2.1c0-.9-.2-1.6-.6-2.3-.4-.8-1.1-1.1-1.9-1.1-.9 0-1.5.4-2 1.1-.4.6-.6 1.4-.6 2.3 0 .9.2 1.6.6 2.3.5.8 1.1 1.1 1.9 1.1.8 0 1.5-.4 1.9-1.2.5-.6.7-1.3.7-2.2"/><path d="m112.6 23.8c-.2 0-.4-.1-.7-.1-.8 0-1.3.3-1.7.9-.4.5-.5 1.1-.5 1.9v5h-2.1v-6.6c0-1.1 0-2.1-.1-3h1.9l.1 1.8h.1c.2-.6.6-1.1 1.1-1.5.5-.3 1-.5 1.5-.5.2 0 .4 0 .5 0-.1.1-.1 2.1-.1 2.1"/><path d="m122.2 26.3c0 .4 0 .7-.1 1h-6.4c0 .9.3 1.7.9 2.2.5.4 1.2.7 2.1.7.9 0 1.8-.2 2.6-.5l.3 1.5c-.9.4-2 .6-3.2.6-1.5 0-2.7-.4-3.5-1.3-.8-.9-1.3-2-1.3-3.5 0-1.4.4-2.7 1.2-3.6.8-1 1.9-1.5 3.4-1.5 1.4 0 2.4.5 3.1 1.5.6.6.9 1.7.9 2.9m-2.1-.6c0-.6-.1-1.2-.4-1.6-.4-.6-.9-.9-1.7-.9-.7 0-1.3.3-1.7.9-.4.5-.6 1-.6 1.7l4.4-.1"/><path d="m49 10c0 1.2-.4 2.1-1.1 2.7-.7.5-1.6.8-2.8.8-.6 0-1.1 0-1.5-.1v-6.4c.6-.1 1.2-.1 1.8-.1 1.1 0 2 .2 2.6.7.7.6 1 1.4 1 2.4m-1.1 0c0-.8-.2-1.3-.6-1.8-.4-.4-1-.6-1.8-.6-.3 0-.6 0-.8.1v4.9c.1 0 .4 0 .7 0 .8 0 1.4-.2 1.9-.7s.6-1 .6-1.9"/><path d="m54.9 11c0 .7-.2 1.3-.6 1.8-.4.5-1 .7-1.7.7-.7 0-1.2-.2-1.7-.7-.4-.5-.6-1-.6-1.7 0-.7.2-1.3.6-1.8s1-.7 1.7-.7c.7 0 1.2.2 1.7.7.4.5.6 1 .6 1.7m-1.1.1c0-.4-.1-.8-.3-1.1-.2-.4-.5-.6-.9-.6-.4 0-.7.2-1 .6-.2.3-.3.7-.3 1.1 0 .4.1.8.3 1.1.2.4.5.6 1 .6.4 0 .7-.2.9-.6.2-.3.3-.7.3-1.1"/><path d="m62.8 8.7l-1.5 4.7h-1l-.6-2c-.2-.5-.3-1-.4-1.5-.1.5-.2 1-.4 1.5l-.6 2h-1l-1.4-4.7h1.1l.5 2.2c.1.5.2 1 .3 1.5.1-.4.2-.9.4-1.5l.7-2.2h.9l.6 2.2c.2.5.3 1.1.4 1.6.1-.5.2-1 .3-1.6l.6-2.2h1.1"/><path d="m68.2 13.4h-1v-2.7c0-.8-.3-1.2-.9-1.2-.3 0-.6.1-.8.3-.2.2-.3.5-.3.8v2.8h-1v-3.4c0-.4 0-.9 0-1.3h.8v.7c.1-.2.3-.4.5-.6.3-.2.6-.3.9-.3.4 0 .8.1 1.1.4.4.3.5.9.5 1.6v2.9z"/><path d="m71.1 13.4h-1v-6.8h1v6.8"/><path d="m77.3 11c0 .7-.2 1.3-.6 1.8-.4.5-1 .7-1.7.7-.7 0-1.2-.2-1.7-.7-.4-.5-.6-1-.6-1.7 0-.7.2-1.3.6-1.8s1-.7 1.7-.7c.7 0 1.2.2 1.7.7.4.5.6 1 .6 1.7m-1.1.1c0-.4-.1-.8-.3-1.1-.2-.4-.5-.6-.9-.6-.4 0-.7.2-1 .6-.2.3-.3.7-.3 1.1 0 .4.1.8.3 1.1.2.4.5.6 1 .6.4 0 .7-.2.9-.6.2-.3.3-.7.3-1.1"/><path d="m82.3 13.4h-.9l-.1-.5c-.3.4-.8.6-1.4.6-.4 0-.8-.1-1.1-.4-.2-.3-.4-.6-.4-1 0-.6.2-1 .7-1.3.5-.3 1.2-.5 2-.4v-.1c0-.6-.3-.9-1-.9-.5 0-.9.1-1.2.3l-.1-.7c.4-.3 1-.4 1.6-.4 1.2 0 1.8.6 1.8 1.9v1.7c.1.6.1 1 .1 1.2m-1.1-1.6v-.7c-1.2 0-1.7.3-1.7.9 0 .2.1.4.2.6.1.1.3.2.5.2.2 0 .4-.1.6-.2.2-.1.3-.3.4-.6 0-.1 0-.1 0-.2"/><path d="m88.3 13.4h-.9v-.8c-.3.6-.8.9-1.5.9-.6 0-1-.2-1.4-.7s-.6-1-.6-1.7c0-.8.2-1.4.6-1.9.4-.4.9-.7 1.5-.7.6 0 1.1.2 1.3.6v-2.5h1v5.6c-.1.4 0 .8 0 1.2m-1.1-2v-.8c0-.1 0-.2 0-.3-.1-.3-.2-.5-.4-.6-.2-.2-.4-.3-.7-.3-.4 0-.7.2-.9.5-.2.3-.3.7-.3 1.2 0 .5.1.8.3 1.1.2.3.5.5.9.5.3 0 .6-.1.8-.4.2-.2.3-.5.3-.9"/><path d="m97.2 11c0 .7-.2 1.3-.6 1.8-.4.5-1 .7-1.7.7-.7 0-1.2-.2-1.7-.7-.4-.5-.6-1-.6-1.7 0-.7.2-1.3.6-1.8s1-.7 1.7-.7c.7 0 1.2.2 1.7.7.4.5.6 1 .6 1.7m-1 .1c0-.4-.1-.8-.3-1.1-.2-.4-.5-.6-.9-.6-.4 0-.7.2-1 .6-.2.3-.3.7-.3 1.1 0 .4.1.8.3 1.1.2.4.5.6 1 .6.4 0 .7-.2.9-.6.2-.3.3-.7.3-1.1"/><path d="m102.9 13.4h-1v-2.7c0-.8-.3-1.2-1-1.2-.3 0-.6.1-.8.3s-.3.5-.3.8v2.8h-1v-3.4c0-.4 0-.9 0-1.3h.9v.7c.1-.2.3-.4.5-.6.3-.2.6-.3 1-.3.4 0 .8.1 1.1.4.4.3.5.9.5 1.6v2.9z"/><path d="m109.9 9.5h-1.2v2.3c0 .6.2.9.6.9.2 0 .3 0 .5 0v.8c-.2.1-.5.1-.8.1-.4 0-.7-.1-1-.4-.2-.3-.3-.7-.3-1.3v-2.4h-.7v-.8h.7v-.8l1-.3v1.2h1.2v.7"/><path d="m115.5 13.4h-1v-2.7c0-.8-.3-1.3-.9-1.3-.5 0-.8.2-1 .7 0 .1 0 .2 0 .4v2.8h-1v-6.7h1v2.8c.3-.5.8-.8 1.4-.8.4 0 .8.1 1.1.4.4.4.5.9.5 1.6-.1 0-.1 2.8-.1 2.8"/><path d="m121.2 10.9c0 .2 0 .3 0 .5h-3.2c0 .5.2.8.5 1.1.3.2.6.3 1 .3.5 0 .9-.1 1.3-.2l.2.7c-.4.2-1 .3-1.6.3-.7 0-1.3-.2-1.7-.6-.4-.4-.6-1-.6-1.7 0-.7.2-1.3.6-1.8.4-.5 1-.8 1.6-.8.7 0 1.2.3 1.5.8.3.3.4.8.4 1.4m-1-.3c0-.3-.1-.6-.2-.8-.2-.3-.5-.4-.8-.4-.3 0-.6.1-.8.4-.2.2-.3.5-.3.8-.1 0 2.1 0 2.1 0"/></g></svg>